<svg width="214" height="64" viewBox="0 0 214 64" fill="none" xmlns="http://www.w3.org/2000/svg">
<path d="M75.451 43.33C73.493 43.33 71.81 43.011 70.402 42.373C68.994 41.713 67.894 40.712 67.102 39.37C66.31 38.006 65.881 36.312 65.815 34.288C65.793 33.342 65.782 32.407 65.782 31.483C65.782 30.559 65.793 29.613 65.815 28.645C65.881 26.643 66.321 24.971 67.135 23.629C67.949 22.287 69.06 21.275 70.468 20.593C71.898 19.911 73.559 19.57 75.451 19.57C77.343 19.57 79.004 19.911 80.434 20.593C81.864 21.275 82.986 22.287 83.8 23.629C84.614 24.971 85.054 26.643 85.12 28.645C85.164 29.613 85.186 30.559 85.186 31.483C85.186 32.407 85.164 33.342 85.12 34.288C85.054 36.312 84.625 38.006 83.833 39.37C83.041 40.712 81.93 41.713 80.5 42.373C79.092 43.011 77.409 43.33 75.451 43.33ZM75.451 39.535C76.881 39.535 78.047 39.117 78.949 38.281C79.851 37.423 80.335 36.037 80.401 34.123C80.445 33.155 80.467 32.264 80.467 31.45C80.467 30.614 80.445 29.723 80.401 28.777C80.357 27.501 80.115 26.467 79.675 25.675C79.257 24.861 78.685 24.278 77.959 23.926C77.233 23.552 76.397 23.365 75.451 23.365C74.527 23.365 73.702 23.552 72.976 23.926C72.25 24.278 71.667 24.861 71.227 25.675C70.809 26.467 70.578 27.501 70.534 28.777C70.512 29.723 70.501 30.614 70.501 31.45C70.501 32.264 70.512 33.155 70.534 34.123C70.6 36.037 71.084 37.423 71.986 38.281C72.888 39.117 74.043 39.535 75.451 39.535ZM91.3673 49.27C91.1473 49.27 90.9603 49.193 90.8063 49.039C90.6523 48.885 90.5753 48.698 90.5753 48.478V26.632C90.5753 26.412 90.6523 26.225 90.8063 26.071C90.9603 25.917 91.1473 25.84 91.3673 25.84H93.9743C94.2163 25.84 94.4033 25.917 94.5353 26.071C94.6893 26.225 94.7663 26.412 94.7663 26.632V27.952C95.2943 27.248 95.9873 26.665 96.8453 26.203C97.7033 25.741 98.7703 25.51 100.046 25.51C101.212 25.51 102.224 25.697 103.082 26.071C103.94 26.445 104.655 26.984 105.227 27.688C105.799 28.37 106.239 29.184 106.547 30.13C106.855 31.076 107.031 32.121 107.075 33.265C107.097 33.639 107.108 34.024 107.108 34.42C107.108 34.816 107.097 35.212 107.075 35.608C107.053 36.708 106.888 37.731 106.58 38.677C106.272 39.601 105.821 40.415 105.227 41.119C104.655 41.801 103.94 42.34 103.082 42.736C102.224 43.132 101.212 43.33 100.046 43.33C98.8583 43.33 97.8463 43.121 97.0103 42.703C96.1743 42.263 95.4923 41.691 94.9643 40.987V48.478C94.9643 48.698 94.8873 48.885 94.7333 49.039C94.6013 49.193 94.4143 49.27 94.1723 49.27H91.3673ZM98.8253 39.799C99.7713 39.799 100.508 39.601 101.036 39.205C101.564 38.787 101.938 38.248 102.158 37.588C102.4 36.928 102.543 36.202 102.587 35.41C102.631 34.75 102.631 34.09 102.587 33.43C102.543 32.638 102.4 31.912 102.158 31.252C101.938 30.592 101.564 30.064 101.036 29.668C100.508 29.25 99.7713 29.041 98.8253 29.041C97.9233 29.041 97.1863 29.25 96.6143 29.668C96.0643 30.086 95.6573 30.625 95.3933 31.285C95.1513 31.923 95.0083 32.583 94.9643 33.265C94.9423 33.661 94.9313 34.079 94.9313 34.519C94.9313 34.959 94.9423 35.388 94.9643 35.806C94.9863 36.466 95.1403 37.104 95.4263 37.72C95.7123 38.314 96.1303 38.809 96.6803 39.205C97.2303 39.601 97.9453 39.799 98.8253 39.799ZM112.991 43C112.793 43 112.617 42.923 112.463 42.769C112.309 42.615 112.232 42.439 112.232 42.241V26.632C112.232 26.412 112.309 26.225 112.463 26.071C112.617 25.917 112.804 25.84 113.024 25.84H115.763C116.005 25.84 116.192 25.917 116.324 26.071C116.478 26.225 116.555 26.412 116.555 26.632V39.667L115.4 38.842L124.475 26.368C124.585 26.214 124.706 26.093 124.838 26.005C124.97 25.895 125.146 25.84 125.366 25.84H127.874C128.072 25.84 128.248 25.917 128.402 26.071C128.556 26.203 128.633 26.368 128.633 26.566V42.208C128.633 42.428 128.556 42.615 128.402 42.769C128.248 42.923 128.061 43 127.841 43H125.102C124.86 43 124.662 42.923 124.508 42.769C124.376 42.615 124.31 42.428 124.31 42.208V29.767L125.531 29.932L116.39 42.472C116.302 42.604 116.181 42.725 116.027 42.835C115.895 42.945 115.719 43 115.499 43H112.991Z" fill="#FF6838"/>
<path d="M135.003 43C134.783 43 134.596 42.923 134.442 42.769C134.288 42.615 134.211 42.428 134.211 42.208V26.632C134.211 26.412 134.288 26.225 134.442 26.071C134.596 25.917 134.783 25.84 135.003 25.84H145.464C145.684 25.84 145.871 25.917 146.025 26.071C146.179 26.225 146.256 26.412 146.256 26.632V28.546C146.256 28.766 146.179 28.953 146.025 29.107C145.871 29.261 145.684 29.338 145.464 29.338H138.534V42.208C138.534 42.428 138.457 42.615 138.303 42.769C138.171 42.923 137.984 43 137.742 43H135.003ZM155.309 43.33C154.165 43.33 153.131 43.11 152.207 42.67C151.283 42.208 150.546 41.603 149.996 40.855C149.468 40.085 149.204 39.227 149.204 38.281C149.204 36.741 149.82 35.52 151.052 34.618C152.306 33.694 153.956 33.078 156.002 32.77L160.523 32.11V31.417C160.523 30.493 160.292 29.778 159.83 29.272C159.368 28.766 158.576 28.513 157.454 28.513C156.662 28.513 156.013 28.678 155.507 29.008C155.023 29.316 154.66 29.734 154.418 30.262C154.242 30.548 153.989 30.691 153.659 30.691H151.052C150.81 30.691 150.623 30.625 150.491 30.493C150.381 30.361 150.326 30.185 150.326 29.965C150.348 29.613 150.491 29.184 150.755 28.678C151.019 28.172 151.437 27.688 152.009 27.226C152.581 26.742 153.318 26.335 154.22 26.005C155.122 25.675 156.211 25.51 157.487 25.51C158.873 25.51 160.039 25.686 160.985 26.038C161.953 26.368 162.723 26.819 163.295 27.391C163.867 27.963 164.285 28.634 164.549 29.404C164.813 30.174 164.945 30.988 164.945 31.846V42.208C164.945 42.428 164.868 42.615 164.714 42.769C164.56 42.923 164.373 43 164.153 43H161.48C161.238 43 161.04 42.923 160.886 42.769C160.754 42.615 160.688 42.428 160.688 42.208V40.921C160.402 41.339 160.017 41.735 159.533 42.109C159.049 42.461 158.455 42.758 157.751 43C157.069 43.22 156.255 43.33 155.309 43.33ZM156.431 40.195C157.201 40.195 157.894 40.03 158.51 39.7C159.148 39.37 159.643 38.864 159.995 38.182C160.369 37.478 160.556 36.598 160.556 35.542V34.849L157.256 35.377C155.958 35.575 154.99 35.894 154.352 36.334C153.714 36.774 153.395 37.313 153.395 37.951C153.395 38.435 153.538 38.853 153.824 39.205C154.132 39.535 154.517 39.788 154.979 39.964C155.441 40.118 155.925 40.195 156.431 40.195ZM171.323 43C171.103 43 170.927 42.934 170.795 42.802C170.663 42.67 170.597 42.505 170.597 42.307V26.467C170.597 26.291 170.663 26.148 170.795 26.038C170.949 25.906 171.103 25.84 171.257 25.84H174.029C174.403 25.84 174.689 26.027 174.887 26.401L179.969 35.641L185.051 26.401C185.249 26.027 185.535 25.84 185.909 25.84H188.648C188.846 25.84 189.011 25.906 189.143 26.038C189.275 26.148 189.341 26.291 189.341 26.467V42.307C189.341 42.505 189.275 42.67 189.143 42.802C189.011 42.934 188.835 43 188.615 43H185.777C185.557 43 185.381 42.934 185.249 42.802C185.139 42.67 185.084 42.505 185.084 42.307V30.328L186.437 30.559L181.553 39.568C181.443 39.766 181.311 39.953 181.157 40.129C181.003 40.283 180.783 40.36 180.497 40.36H179.408C179.144 40.36 178.935 40.283 178.781 40.129C178.627 39.975 178.495 39.788 178.385 39.568L173.6 30.922L174.854 30.724V42.307C174.854 42.505 174.788 42.67 174.656 42.802C174.524 42.934 174.359 43 174.161 43H171.323ZM195.978 43C195.78 43 195.604 42.923 195.45 42.769C195.296 42.615 195.219 42.439 195.219 42.241V26.632C195.219 26.412 195.296 26.225 195.45 26.071C195.604 25.917 195.791 25.84 196.011 25.84H198.75C198.992 25.84 199.179 25.917 199.311 26.071C199.465 26.225 199.542 26.412 199.542 26.632V39.667L198.387 38.842L207.462 26.368C207.572 26.214 207.693 26.093 207.825 26.005C207.957 25.895 208.133 25.84 208.353 25.84H210.861C211.059 25.84 211.235 25.917 211.389 26.071C211.543 26.203 211.62 26.368 211.62 26.566V42.208C211.62 42.428 211.543 42.615 211.389 42.769C211.235 42.923 211.048 43 210.828 43H208.089C207.847 43 207.649 42.923 207.495 42.769C207.363 42.615 207.297 42.428 207.297 42.208V29.767L208.518 29.932L199.377 42.472C199.289 42.604 199.168 42.725 199.014 42.835C198.882 42.945 198.706 43 198.486 43H195.978Z" fill="#454978"/>
<path d="M31.9996 16.1701L30.3496 38.2801L47.7896 33.9901C47.1496 33.9901 46.5396 33.7001 46.1396 33.2001L32.6396 16.4401C32.4796 16.2601 32.2396 16.1601 31.9996 16.1701V16.1701Z" fill="#FF6838"/>
<path d="M32.0009 16.1699C31.7609 16.1699 31.5209 16.2599 31.3609 16.4399L17.8609 33.1999C17.4609 33.6999 16.8509 33.9899 16.2109 33.9899L32.0009 36.4499V16.1699Z" fill="#454978"/>
<path d="M32.0001 33.9897H5.57009C5.13009 33.9897 4.85009 34.4797 5.09009 34.8597L12.5901 46.9997C12.7901 47.2997 13.0601 47.5297 13.3901 47.6697L27.9901 41.1797L32.0001 33.9997V33.9897Z" fill="#FF6838"/>
<path d="M32 33.9897L35.52 41.1997L50.62 47.6697C50.95 47.5297 51.22 47.2997 51.42 46.9997L58.92 34.8597C59.15 34.4797 58.88 33.9897 58.44 33.9897H32.01H32Z" fill="#FF6838"/>
<path d="M32.0009 33.9897L13.3809 47.6697C13.6109 47.7897 13.8709 47.8497 14.1309 47.8597H49.8609C50.1209 47.8497 50.3809 47.7797 50.6109 47.6697L31.9909 33.9897H32.0009Z" fill="#454978"/>
<path d="M4 34.5599C4 34.8499 4.08 35.1399 4.23 35.3799L11.73 47.5199C12.25 48.3599 13.15 48.8599 14.13 48.8599H49.86C50.85 48.8599 51.74 48.3599 52.26 47.5199L59.76 35.3799C59.98 35.0199 60.05 34.5999 59.95 34.1999C59.85 33.7999 59.6 33.4499 59.25 33.2299C59 33.0799 58.72 32.9999 58.43 32.9999H47.79C47.45 32.9999 47.13 32.8499 46.91 32.5799L33.41 15.8199C33.1 15.4399 32.67 15.1999 32.19 15.1499C31.56 15.0899 30.96 15.3399 30.58 15.8199L17.08 32.5799C16.87 32.8499 16.55 32.9999 16.2 32.9999H5.57C4.71 32.9999 4 33.6999 4 34.5699V34.5599ZM47.83 46.8599H16.17L32 35.2299L47.83 46.8599ZM57.65 34.9899L50.59 46.4099L35.04 34.9899H57.65ZM44.68 32.9899H32.99V18.4799L44.68 32.9899ZM30.99 18.4799V32.9899H19.3L30.99 18.4799ZM28.94 34.9899L13.39 46.4099L6.33 34.9899H28.95H28.94Z" fill="black"/>
</svg>
