<?xml version="1.0" encoding="utf-8"?><svg viewBox="0 0 59 58" xmlns="http://www.w3.org/2000/svg" xmlns:xlink="http://www.w3.org/1999/xlink"><style>:root>svg{display:none}:root>svg:target{display:block}</style><svg viewBox="0 0 44 44" id="burger" xmlns="http://www.w3.org/2000/svg"><g clip-path="url(#aclip0_669_1036)"><path d="M44 20.336c0-1.69-1.09-3.128-2.602-3.653-.232-5.241-2.189-9.263-5.825-11.966C32.254 2.251 27.688 1 22 1 16.312 1 11.746 2.25 8.427 4.717 4.791 7.42 2.834 11.442 2.602 16.683A3.873 3.873 0 000 20.336c0 .99.374 1.893.988 2.578A3.851 3.851 0 000 25.492c0 1.7 1.103 3.146 2.63 3.663.553 5.89 5.56 10.517 11.636 10.517h15.468c6.076 0 11.084-4.627 11.636-10.517A3.873 3.873 0 0044 25.492c0-.99-.374-1.893-.988-2.578A3.852 3.852 0 0044 20.336zM22 3.578c7.393 0 16.151 2.28 16.803 12.89H5.197C5.849 5.859 14.607 3.579 22 3.579zM3.867 19.047h36.266c.71 0 1.289.578 1.289 1.289 0 .71-.578 1.289-1.29 1.289H3.868a1.29 1.29 0 01-1.289-1.29c0-.71.578-1.288 1.29-1.288zm25.867 18.047H14.266c-4.581 0-8.383-3.367-9.016-7.735h1.195c.862 0 1.134.293 1.677.878.667.718 1.58 1.7 3.566 1.7 2 0 2.889-.993 3.538-1.718.513-.572.77-.86 1.618-.86.848 0 1.105.288 1.617.86.65.725 1.54 1.718 3.539 1.718 2 0 2.89-.993 3.538-1.718.513-.572.77-.86 1.618-.86.848 0 1.105.288 1.618.86.65.725 1.539 1.718 3.538 1.718 2 0 2.89-.993 3.539-1.718.513-.572.77-.86 1.618-.86h1.281c-.633 4.367-4.435 7.735-9.016 7.735zM40.133 26.78h-2.664c-2 0-2.89.993-3.539 1.719-.512.572-.77.86-1.617.86-.848 0-1.106-.288-1.618-.86-.65-.726-1.539-1.719-3.539-1.719s-2.889.993-3.538 1.719c-.513.572-.77.86-1.618.86-.848 0-1.105-.288-1.618-.86-.65-.726-1.538-1.719-3.538-1.719-2 0-2.89.993-3.539 1.719-.512.572-.77.86-1.617.86-.862 0-1.135-.294-1.677-.878-.667-.718-1.58-1.7-3.566-1.7H3.867a1.29 1.29 0 01-1.289-1.29c0-.71.578-1.289 1.29-1.289h36.265a1.29 1.29 0 010 2.578z"/><path d="M14.266 13.89a1.289 1.289 0 100-2.577 1.289 1.289 0 000 2.578zM29.734 13.89a1.289 1.289 0 100-2.577 1.289 1.289 0 000 2.578zM24.578 11.313a1.289 1.289 0 100-2.579 1.289 1.289 0 000 2.579zM19.422 8.734a1.289 1.289 0 100-2.578 1.289 1.289 0 000 2.578z"/></g><defs><clipPath id="aclip0_669_1036"><path d="M0 0h44v44H0z"/></clipPath></defs></svg><svg viewBox="0 0 34 34" id="delivery" xmlns="http://www.w3.org/2000/svg"><path d="M6.518 24.469l.407.97c.288-.117.587-.205.893-.26l-.19-1.034c-.38.069-.753.177-1.11.324zM3.727 27.075l.956.458a4.322 4.322 0 011.46-1.676l-.6-.867a5.378 5.378 0 00-1.816 2.085z"/><path d="M32.938 26.78c0-.905-.337-1.777-.948-2.45l-.791.7c.314.346.529.769.623 1.225h-3.666a.536.536 0 00-.442.233l-1.967 2.917h-1.31V27.83a3.659 3.659 0 011.09-2.598 3.745 3.745 0 012.63-1.078h1.062c.522 0 1.033.152 1.468.438l.588-.875a3.723 3.723 0 00-1.525-.575v-1.613a.522.522 0 00-.156-.371.534.534 0 00-.375-.154 2.14 2.14 0 01-1.502-.616 2.09 2.09 0 01-.623-1.485v-2.1h1.593c.141 0 .276-.055.376-.154a.522.522 0 00.156-.37v-3.677a.522.522 0 00-.156-.37.535.535 0 00-.375-.154h-.938c-.221 0-.442.03-.656.089v-.615a.521.521 0 00-.117-.328L25.24 9.077a1.82 1.82 0 00-.43-2.366 1.873 1.873 0 00-2.43.078 1.822 1.822 0 00-.274 2.388 1.86 1.86 0 001.06.74c.432.112.89.067 1.291-.127l1.575 1.947v.662l-2.335-.77a1.448 1.448 0 00-.476-.077h-4.382l-2.522-2.908A1.58 1.58 0 0017 7.352v-.2l.769-.38a.53.53 0 00.276-.336.518.518 0 00-.072-.426l-.872-1.293a.532.532 0 00.309-.182.52.52 0 00.121-.334c0-.835-.337-1.636-.934-2.226a3.21 3.21 0 00-2.253-.924c-1 0-1.927.284-2.616 1.036a3.123 3.123 0 00-.808 2.427l.113 1.124c.048.484.282.932.655 1.25v9.915c0 .37.098.731.285 1.05h-.817c-.18 0-.36.03-.531.09v-6.916c0-.417-.168-.818-.467-1.113a1.605 1.605 0 00-1.127-.462H2.656c-.422 0-.827.167-1.126.462a1.568 1.568 0 00-.468 1.113v2.626h1.063v-1.05h7.438v5.25H2.125v-3.15H1.062v4.287c0 .246.088.485.247.673.16.19.381.317.626.36l4.971.894v1.232c-.45.103-.89.247-1.314.43H2.656a.534.534 0 00-.375.154.522.522 0 00-.156.371v2.492a7.393 7.393 0 00-1.063 3.81c0 .139.056.272.156.37.1.099.235.154.376.154h2.435c.317.776.862 1.44 1.564 1.908a4.286 4.286 0 004.752 0 4.211 4.211 0 001.564-1.908h8.932a2.687 2.687 0 001.966-.859l.568-.618v1.477c0 .14.056.273.156.372.1.098.234.153.375.153h1.101c.468.801 1.19 1.427 2.054 1.78a4.297 4.297 0 002.727.177 4.253 4.253 0 002.271-1.5 4.17 4.17 0 00.705-3.745.522.522 0 00.173-.387zM22.843 8.14a.782.782 0 01.492-.728.805.805 0 01.868.17.786.786 0 01.173.859.803.803 0 01-1.3.255.784.784 0 01-.233-.557zm-7.6 18.64c-.52 0-1.02-.205-1.387-.569a1.93 1.93 0 01-.576-1.37c0-.516.132-.998.48-1.395.31-.353.737-.583 1.205-.65a2.377 2.377 0 001.454-.783c.374-.426.58-.97.58-1.534a.518.518 0 00-.156-.372 1.56 1.56 0 00.065-1.203h1.443l-2.332 5.99a1.208 1.208 0 00-.082.453v1.433h-.694zM17 25.73h2.656a.535.535 0 01.508.372.52.52 0 01-.213.59 1.074 1.074 0 01-.424.088H17v-1.05zm4.123-.092a1.582 1.582 0 00-.484-.623 1.608 1.608 0 00-.727-.315l2.2-5.235a3.03 3.03 0 00-.284-2.875 3.085 3.085 0 00-1.116-1 3.126 3.126 0 00-1.46-.362H17v-.833l.156.154a.533.533 0 00.375.154h5.404a1.557 1.557 0 00.201 1.435 1.607 1.607 0 001.301.666h.002a2.592 2.592 0 00-.533 1.575v4.073c0 .278-.112.545-.311.742l-2.472 2.444zm3.314-9.885a.535.535 0 01-.49-.324.52.52 0 01.115-.572.532.532 0 01.579-.114.53.53 0 01.328.485c0 .14-.056.273-.156.371a.535.535 0 01-.375.154zm3.72-2.625v2.625h-1.063v-2.462a1.41 1.41 0 01.656-.163h.406zm-2.126 2.1a1.56 1.56 0 00-.673-1.286 1.603 1.603 0 00-1.452-.199v-.937l2.125.7v1.722zm-7.437-2.626h4.25v1.05H17.75l-3.032-2.996-.75.743 1.969 1.946v1.883H12.75V8.927h2.412l3.028 3.492a.53.53 0 00.404.183zm-6.078-9.81c.485-.53 1.13-.691 1.828-.691.47 0 .928.155 1.3.44.373.286.64.685.757 1.135h-2.057a.535.535 0 00-.376.154.522.522 0 00-.155.371v1.247a.848.848 0 01-.24.586.868.868 0 01-1.482-.5l-.114-1.124a2.054 2.054 0 01.539-1.618zm.433 4.56c.51 0 1-.202 1.361-.558.361-.357.564-.841.565-1.346v-.722h1.063a.52.52 0 00.089.292l.728 1.08-.524.26a.53.53 0 00-.294.469v.525c0 .139-.056.272-.155.37a.535.535 0 01-.376.155H12.75V7.34c.066.007.133.01.2.01zm-.199 9.451v-.525h6.501c.335 0 .665.082.96.238.296.156.547.382.733.657a1.997 1.997 0 01.187 1.889l-2.36 5.617h-1.529l2.379-6.112a.52.52 0 00-.249-.653.536.536 0 00-.247-.06h-5.313a1.07 1.07 0 01-.75-.309 1.045 1.045 0 01-.312-.742zm-1.594 2.1h4.25c.141 0 .276.056.376.154a.522.522 0 01-.376.897h-4.25a.534.534 0 01-.375-.154.522.522 0 01.375-.896zm-9.031-7.35v-.526c0-.139.056-.272.156-.37a.535.535 0 01.375-.155h6.375c.141 0 .276.056.376.154.1.099.155.232.155.371v.525H2.125zm0 7.35h7.438v1.05H7.485l-5.36-.963v-.086zm1.72 4.726c-.231.185-.45.384-.658.594v-.594h.657zm4.124 7.877a3.24 3.24 0 01-1.592-.426 3.194 3.194 0 01-1.168-1.15h1.356a2.136 2.136 0 002.808 0h1.356a3.193 3.193 0 01-1.169 1.15 3.24 3.24 0 01-1.591.426zm14.051-3.141a1.595 1.595 0 01-1.18.515H2.148a6.358 6.358 0 011.592-3.701 6.487 6.487 0 013.513-2.03 2.01 2.01 0 01.418-.045h3.486v-1.05H7.97v-1.05h7.856a1.314 1.314 0 01-1.01.753c-.72.102-1.38.458-1.857 1-.514.586-.74 1.318-.74 2.083 0 .712.258 1.4.726 1.94H8.5v1.05h11.027a2.176 2.176 0 001.503-.615l3.316-3.278c.398-.395.621-.928.623-1.485v-4.074c0-.325.102-.643.293-.909.19-.266.459-.467.77-.576v2.01c0 .745.267 1.465.753 2.033.486.569 1.16.95 1.902 1.074v1.094c-.33 0-.667-.02-.995.023a4.82 4.82 0 00-2.683 1.15 4.727 4.727 0 00-1.507 2.476l-1.482 1.612zm6.42-1.06h.027l.642.634a.588.588 0 01.074.743.594.594 0 01-.612.25.597.597 0 01-.305-.16l-.489-.484.663-.983zm.247 4.2c-.46 0-.914-.1-1.332-.291a3.2 3.2 0 01-1.09-.813.528.528 0 00.208-.18l.46-.682c.257.37.626.65 1.055.799.428.148.893.156 1.327.024a2.123 2.123 0 001.083-.76 2.083 2.083 0 00.129-2.297h1.166a3.118 3.118 0 01-.403 2.869 3.178 3.178 0 01-1.137.978 3.218 3.218 0 01-1.465.354z"/><path d="M4.25 13.652H3.187v3.15H4.25v-3.15z"/></svg><svg viewBox="0 0 45 45" id="desserts" xmlns="http://www.w3.org/2000/svg"><path d="M22.5 0C10.104 0 0 10.104 0 22.5 0 34.897 10.104 45 22.5 45 34.897 45 45 34.897 45 22.5 45 10.104 34.897 0 22.5 0zm0 2.15c11.25 0 20.35 9.1 20.35 20.35 0 1.72-.215 3.368-.645 4.944-3.01 1.792-6.234-.215-6.377-.286-.358-.215-.717-.215-1.075-.072-.358.215-.573.573-.573.931v3.655c0 .86-.717 1.576-1.648 1.576-.932 0-1.648-.716-1.648-1.576v-9.459-.215c-.287-4.37-3.941-7.882-8.384-7.882-4.443 0-8.097 3.511-8.384 7.882v9.745c0 .86-.716 1.577-1.648 1.577-.931 0-1.648-.717-1.648-1.576v-3.655c0-.358-.215-.788-.573-.931-.358-.215-.788-.144-1.075.071 0 0-3.296 2.078-6.306.359a19.108 19.108 0 01-.645-4.945C2.15 11.25 11.25 2.15 22.5 2.15zm0 14.116c3.44 0 6.306 2.795 6.306 6.306a6.27 6.27 0 01-6.306 6.305 6.27 6.27 0 01-6.306-6.305c0-3.511 2.867-6.306 6.306-6.306zm0 26.584c-8.527 0-15.836-5.302-18.846-12.755 1.935.502 3.727.072 4.945-.358v1.935c0 2.006 1.72 3.726 3.797 3.726 2.079 0 3.798-1.648 3.798-3.726v-3.583c1.577 1.72 3.798 2.795 6.306 2.795s4.73-1.075 6.306-2.795v3.583c0 2.006 1.72 3.726 3.797 3.726 2.078 0 3.798-1.648 3.798-3.726v-1.935c1.218.43 3.081.86 5.016.359C38.336 37.618 31.027 42.85 22.5 42.85zM6.95 23.002c-.286 0-.573-.072-.788-.287a1.039 1.039 0 010-1.505L8.6 18.774c.43-.43 1.075-.43 1.505 0 .43.43.43 1.075 0 1.505l-2.437 2.436c-.143.143-.43.287-.716.287zm5.017-10.749c-.287 0-.574-.072-.789-.286a1.04 1.04 0 010-1.505l2.437-2.437c.43-.43 1.075-.43 1.504 0 .43.43.43 1.075 0 1.505l-2.436 2.437c-.143.143-.43.286-.716.286zm17.914 0c-.287 0-.574-.072-.789-.286a1.039 1.039 0 010-1.505l2.437-2.437c.43-.43 1.074-.43 1.504 0 .43.43.43 1.075 0 1.505l-2.436 2.437c-.143.143-.43.286-.716.286zm5.732 10.749c-.287 0-.573-.072-.788-.287a1.04 1.04 0 010-1.505l2.436-2.436c.43-.43 1.075-.43 1.505 0 .43.43.43 1.075 0 1.505l-2.436 2.436c-.144.143-.43.287-.717.287z"/></svg><svg viewBox="0 0 32 58" id="drink" xmlns="http://www.w3.org/2000/svg"><g clip-path="url(#dclip0_16_1423)"><path d="M31.196 14.313h-1.15v-2.01a.804.804 0 00-.804-.804H19.49V5.44l3.64-3.509a.331.331 0 00.008-.473L21.825.101a.333.333 0 00-.36-.077.328.328 0 00-.108.07L17.616 3.7a.344.344 0 00-.075.109l-.579 1.36a.341.341 0 00-.026.13v6.2H2.758a.804.804 0 00-.804.804v2.01H.804a.805.805 0 00-.804.804v5.202a.804.804 0 00.804.804h1.113L5.28 57.271a.804.804 0 00.8.729h19.84a.803.803 0 00.8-.73l3.363-36.15h1.113a.804.804 0 00.804-.805v-5.201a.805.805 0 00-.804-.8zM17.598 5.367l.526-1.237L21.579.8l.85.884-3.498 3.377a.328.328 0 00-.103.235v6.2h-1.23V5.367zm-14.036 7.74h24.873v1.207H3.562v-1.207zM26.896 38.02c-5.534.302-8.03 3.828-10.446 7.244-2.441 3.45-4.756 6.715-10.02 7.008L5.395 41.154c5.601-.32 8.638-3.848 11.579-7.264 2.94-3.416 5.742-6.667 10.954-6.982L26.896 38.02zm-1.71 18.372H6.81l-.322-3.46c5.57-.32 8.074-3.86 10.498-7.282 2.414-3.411 4.702-6.64 9.843-6.957l-1.642 17.7zm2.809-30.152c-5.563.3-8.589 3.815-11.519 7.219-2.983 3.464-5.809 6.742-11.139 7.033L3.531 21.119h24.937l-.473 5.12zm2.4-6.728H1.608v-3.595h28.784l.003 3.595z"/></g><defs><clipPath id="dclip0_16_1423"><path d="M0 0h32v58H0z"/></clipPath></defs></svg><svg viewBox="0 0 34 34" id="restaurant" xmlns="http://www.w3.org/2000/svg"><path d="M32.406 28.156h-3.718V17.484a2.31 2.31 0 001.69-3.092l-1.69-4.397V1.594a.531.531 0 00-.532-.532H5.844a.531.531 0 00-.532.532v8.4l-1.69 4.398a2.31 2.31 0 001.69 3.092v10.672H1.595a.531.531 0 00-.532.532v3.718a.532.532 0 00.532.532h30.812a.532.532 0 00.532-.532v-3.718a.53.53 0 00-.532-.532zm-5.843 0v-11.33c.29.3.658.517 1.062.625v10.705h-1.063zm-4.25.532v3.187h-2.125v-3.719h1.062a.53.53 0 00.531-.531v-1.594a.531.531 0 00-.531-.531h-3.188a.531.531 0 00-.53.531v1.594a.531.531 0 00.53.531h1.063v3.719H17v-3.188a.53.53 0 00-.531-.53h-1.063v-1.595a.529.529 0 00-.531-.53h-1.063v-8.55a2.309 2.309 0 001.313-.79 2.29 2.29 0 001.781.84h.188a2.288 2.288 0 001.78-.84c.077.092.161.178.251.258v1.644a2.659 2.659 0 00-2.656 2.656.533.533 0 00.531.531h5.313a.529.529 0 00.53-.531 2.659 2.659 0 00-2.655-2.656v-1.111c.154.032.311.048.469.048h.166a2.305 2.305 0 001.802-.864 2.302 2.302 0 001.805.864h.102c.334 0 .664-.07.968-.21v8.71h-1.063a.53.53 0 00-.53.532v1.593h-1.063a.532.532 0 00-.532.532zm-3.72-1.594v-.532h2.126v.532h-2.125zM8.264 14.893l1.173-4.268h2.156l-.79 4.8a1.243 1.243 0 01-1.232 1.044h-.102a1.248 1.248 0 01-1.204-1.576zM8.5 17.32c.304.14.634.21.968.21h.102a2.3 2.3 0 001.805-.864 2.306 2.306 0 001.375.825v2.695H8.5v-2.866zm4.677-.852a1.248 1.248 0 01-1.231-1.451l.724-4.393h2.175l-.256 4.664a1.248 1.248 0 01-1.246 1.18h-.166zm4.822-.39a1.236 1.236 0 01-.905.39h-.188a1.25 1.25 0 01-1.245-1.313l.248-4.531h2.182l.248 4.528v.003a1.233 1.233 0 01-.34.923zm1.412-.79l-.256-4.664h2.175l.724 4.393a1.248 1.248 0 01-1.231 1.45h-.166a1.248 1.248 0 01-1.246-1.179zm.776 4.367a1.597 1.597 0 011.503 1.063h-4.068a1.597 1.597 0 011.503-1.063h1.063zm5.338-3.679a1.239 1.239 0 01-.992.492h-.104a1.244 1.244 0 01-1.23-1.045l-.792-4.799h2.157l1.172 4.265v.003a1.24 1.24 0 01-.211 1.084zm-.556 11.117h.531v1.062h-.531v-1.062zm4.418-12.321a1.248 1.248 0 11-2.368.779l-1.354-4.927h2.127l1.595 4.148zM6.375 2.125h21.25v7.438H6.375V2.125zM4.749 15.928a1.23 1.23 0 01-.136-1.155l1.595-4.148h2.127L6.98 15.552a1.252 1.252 0 01-1.785.775 1.23 1.23 0 01-.447-.4zm1.626 1.523a2.305 2.305 0 001.063-.626v11.331H6.375V17.452zm4.25 14.424h-8.5v-2.656h8.5v2.656zm.531-3.719H8.5V21.25h4.25v10.625h-1.063v-3.188a.53.53 0 00-.53-.53zm2.656-1.062h.532v1.593a.529.529 0 00.531.532h1.063v2.656h-2.126v-4.781zm18.063 4.781h-8.5v-2.656h8.5v2.656z"/><path d="M20.719 6.375h-.577a3.195 3.195 0 00-2.61-2.611v-.576a.531.531 0 10-1.063 0v.576a3.195 3.195 0 00-2.611 2.611h-.577a.531.531 0 00-.531.531 2.127 2.127 0 002.125 2.125h4.25a2.127 2.127 0 002.125-2.125.531.531 0 00-.531-.531zM17 4.781a2.129 2.129 0 012.058 1.594h-4.116A2.129 2.129 0 0117 4.781zm2.125 3.188h-4.25a1.063 1.063 0 01-.92-.532h6.09a1.064 1.064 0 01-.92.532zM13.045 5.223a.532.532 0 00.236-.442V3.188H12.22v1.29a2.339 2.339 0 01-.531.194V3.188h-1.063v1.484a2.337 2.337 0 01-.531-.194v-1.29H9.03V4.78a.531.531 0 00.237.442c.409.273.872.454 1.357.531v3.277h1.063V5.754a3.406 3.406 0 001.357-.53zM22.844 2.656a2.125 2.125 0 00-.532 4.183v2.192h1.063V6.84a2.125 2.125 0 00-.531-4.183zm0 3.188a1.063 1.063 0 110-2.125 1.063 1.063 0 010 2.125z"/></svg><svg viewBox="0 0 58 58" id="rolls" xmlns="http://www.w3.org/2000/svg"><path d="M17.052 34.568c-6.554 0-11.542-2.378-11.542-5.51 0-3.132 4.988-5.51 11.542-5.51 6.612 0 11.542 2.378 11.542 5.51 0 3.132-4.988 5.51-11.542 5.51zm0-9.28c-5.626 0-9.802 1.972-9.802 3.77s4.176 3.77 9.802 3.77c5.8 0 9.802-1.972 9.802-3.77s-4.234-3.77-9.802-3.77zm0 6.728c-3.074 0-6.38-.928-6.38-3.016s3.306-3.016 6.38-3.016 6.38.928 6.38 3.016-3.306 3.016-6.38 3.016zm0-4.234c-2.9 0-4.524.87-4.64 1.276.058.348 1.74 1.276 4.64 1.276 2.9 0 4.524-.87 4.64-1.276-.116-.406-1.798-1.276-4.64-1.276zm-.406 20.242c-3.944 0-6.67-.754-8.352-1.334a4.337 4.337 0 01-2.784-4.06V29.058c0-.464.406-.87.87-.87.464 0 .87.406.87.87 0 1.798 4.176 3.77 9.802 3.77 5.8 0 9.802-1.972 9.802-3.77 0-.464.406-.87.87-.87.464 0 .87.406.87.87v13.456c0 1.856-1.16 3.48-2.9 4.06-1.914.638-4.988 1.45-9.048 1.45zM7.25 32.016v10.556c0 1.044.696 2.03 1.682 2.436 1.508.58 4.06 1.218 7.714 1.218 3.828 0 6.728-.754 8.468-1.334a2.561 2.561 0 001.74-2.436v-10.44c-2.03 1.566-5.568 2.494-9.802 2.494-4.234.058-7.83-.928-9.802-2.494zm14.384 10.092v-8.7a.892.892 0 00-.87-.87.892.892 0 00-.87.87v8.758c0 .464.406.87.87.87.464 0 .87-.406.87-.928zm19.604-17.69c-6.554 0-11.542-2.378-11.542-5.51 0-3.132 4.988-5.51 11.542-5.51 6.612 0 11.542 2.378 11.542 5.51 0 3.132-4.93 5.51-11.542 5.51zm0-9.28c-5.626 0-9.802 1.972-9.802 3.77s4.176 3.77 9.802 3.77c5.8 0 9.802-1.972 9.802-3.77s-4.176-3.77-9.802-3.77zm0 6.728c-3.074 0-6.38-.928-6.38-3.016s3.306-3.016 6.38-3.016 6.38.928 6.38 3.016-3.306 3.016-6.38 3.016zm0-4.234c-2.9 0-4.524.87-4.64 1.276.058.348 1.74 1.276 4.64 1.276 2.9 0 4.524-.87 4.64-1.276-.116-.406-1.74-1.276-4.64-1.276zm-.406 20.242c-3.944 0-6.67-.754-8.352-1.334a4.337 4.337 0 01-2.784-4.06V18.908c0-.464.406-.87.87-.87.464 0 .87.406.87.87 0 1.798 4.176 3.77 9.802 3.77 5.8 0 9.802-1.972 9.802-3.77 0-.464.406-.87.87-.87.464 0 .87.406.87.87v13.456c0 1.856-1.16 3.48-2.9 4.06-1.856.638-4.988 1.45-9.048 1.45zm-9.396-16.008V32.48c0 1.044.696 2.03 1.682 2.436 1.508.58 4.06 1.218 7.714 1.218 3.828 0 6.728-.754 8.468-1.334a2.561 2.561 0 001.74-2.436v-10.44c-2.03 1.566-5.568 2.494-9.802 2.494s-7.772-.986-9.802-2.552zm14.442 10.092v-8.7a.892.892 0 00-.87-.87.892.892 0 00-.87.87v8.758c0 .464.406.87.87.87.464 0 .87-.406.87-.928z"/></svg><svg viewBox="0 0 59 24" id="sushi" xmlns="http://www.w3.org/2000/svg"><path d="M58 13.606s-3.813 2.731-3.85 2.723c.06.035 2.093 3.391-.223 6.421 0 0-.085-4.602-8.607-9.328 0 0-3.548-.096-5.09-.387-6.724-1.27-19.488-2.777-30.7 1.05-2.19.749-4.483-.103-6.163-1.702a8.506 8.506 0 01-1.91-2.716A5.374 5.374 0 011 7.504c0-2.344 1.546-4.538 3.974-5.19 1.484-.399 3.398-.748 5.857-.982C22.165.255 39.22 1.298 46.34 12.068L58 13.606zM10.021 5.36l1.68 3.436M17.615 4.463l1.68 3.433M25.502 5.138l1.093 2.236"/><path d="M40.23 13.031a8.653 8.653 0 01-8.653 8.618H12.001c-2.39 0-4.553-.97-6.118-2.535a8.63 8.63 0 01-2.512-6.739c1.68 1.6 3.97 2.451 6.163 1.703 11.208-3.824 23.973-2.317 30.696-1.047zM54.145 16.33l-1.159-.79"/></svg><svg viewBox="0 0 34 34" id="timer" xmlns="http://www.w3.org/2000/svg"><g clip-path="url(#hclip0_0_379)"><path d="M31.754 12.881l.996-.996c.288-.288.447-.67.447-1.078 0-.407-.159-.79-.447-1.077l-1.14-1.141a1.514 1.514 0 00-1.078-.447c-.407 0-.79.159-1.078.447l-.996.996a12.7 12.7 0 00-4.412-1.933V6.179h.606a1.49 1.49 0 001.488-1.488v-2.07a1.49 1.49 0 00-1.488-1.488H17.8a1.49 1.49 0 00-1.488 1.488v2.07c0 .82.668 1.488 1.488 1.488h.606v1.477a12.703 12.703 0 00-4.392 1.929l-.996-.996a1.514 1.514 0 00-1.078-.447c-.407 0-.79.159-1.078.447l-1.14 1.14a1.526 1.526 0 000 2.156l.176.177H5.19a.664.664 0 000 1.328h5.193a12.713 12.713 0 00-1.215 2.552H.664a.664.664 0 000 1.328H8.79a12.747 12.747 0 00-.314 2.553H4.25a.664.664 0 000 1.328h4.265c.072.879.233 1.733.474 2.552H3.32a.664.664 0 000 1.329h6.142c1.932 4.598 6.482 7.835 11.774 7.835C28.274 32.867 34 27.142 34 20.104c0-2.678-.83-5.167-2.246-7.222zm-1.36-3.353a.192.192 0 01.138-.058c.037 0 .091.01.139.058l1.14 1.14a.193.193 0 01.058.14c0 .037-.01.09-.058.138l-.873.873c-.435-.509-.91-.983-1.418-1.418l.873-.873zM17.64 4.69v-2.07a.16.16 0 01.16-.16h6.852a.16.16 0 01.16.16v2.07a.16.16 0 01-.16.16H17.8a.16.16 0 01-.16-.16zm2.095 1.488h2.983v1.247a12.835 12.835 0 00-2.983.002V6.179zm-9.075 4.49l1.141-1.141a.192.192 0 01.139-.058c.037 0 .091.01.139.058l.873.873c-.51.435-.983.91-1.418 1.418l-.874-.873a.196.196 0 010-.277zm10.576 20.87C14.93 31.54 9.8 26.41 9.8 20.103S14.93 8.667 21.236 8.667s11.436 5.13 11.436 11.436-5.13 11.436-11.436 11.436z"/><path d="M25.619 14.781l-3.14 3.14a2.498 2.498 0 00-1.243-.331 2.517 2.517 0 00-2.514 2.513 2.517 2.517 0 002.514 2.514 2.516 2.516 0 002.514-2.514c0-.452-.121-.877-.331-1.244l3.139-3.139a.664.664 0 00-.94-.939zm-4.383 6.508a1.187 1.187 0 01-1.186-1.186 1.187 1.187 0 012.371 0c0 .654-.531 1.186-1.185 1.186zM21.236 11.494a.669.669 0 00.47-.195.67.67 0 00.194-.47.669.669 0 00-.664-.664.669.669 0 00-.664.664.668.668 0 00.664.665zM21.236 28.713a.669.669 0 00-.47.194.668.668 0 00.47 1.134.666.666 0 00.664-.664.669.669 0 00-.194-.47.669.669 0 00-.47-.194zM14.678 12.882a.67.67 0 00-.47.194.67.67 0 00-.194.47.67.67 0 00.195.47.669.669 0 00.939 0 .67.67 0 00.194-.47.67.67 0 00-.194-.47.669.669 0 00-.47-.194zM27.794 25.997a.67.67 0 00-.47.194.668.668 0 000 .94.67.67 0 00.47.194.669.669 0 00.47-.195.67.67 0 00.194-.47.669.669 0 00-.664-.663zM14.678 25.997a.67.67 0 00-.47.194.669.669 0 00-.194.47.67.67 0 00.195.47.67.67 0 00.47.194.669.669 0 00.469-.195.67.67 0 00.194-.47.67.67 0 00-.194-.469.67.67 0 00-.47-.194zM11.963 19.44a.668.668 0 00-.665.663.667.667 0 00.665.664.666.666 0 00.664-.664.669.669 0 00-.195-.47.669.669 0 00-.47-.194zM30.98 19.634a.667.667 0 00-1.133.47.667.667 0 00.663.663.669.669 0 00.664-.664.67.67 0 00-.195-.47zM.664 23.704a.669.669 0 00-.47.194.67.67 0 00-.194.47.67.67 0 00.195.47.67.67 0 00.47.194.669.669 0 00.468-.195.67.67 0 00.195-.47.67.67 0 00-.195-.47.668.668 0 00-.469-.193z"/><path d="M30.314 18.087a.664.664 0 00.447-.826 9.964 9.964 0 00-6.704-6.689.664.664 0 10-.376 1.274 8.576 8.576 0 015.807 5.794.664.664 0 00.826.447z"/></g><defs><clipPath id="hclip0_0_379"><path d="M0 0h34v34H0z"/></clipPath></defs></svg><svg viewBox="0 0 58 58" id="wok" xmlns="http://www.w3.org/2000/svg"><path d="M48.894 34.626v-3.132a.892.892 0 00-.87-.87h-37.99a.892.892 0 00-.87.87v3.132c0 5.916 3.364 10.788 8.468 13.224h-7.598a.892.892 0 00-.87.87c0 .464.406.87.87.87h37.99c.464 0 .87-.406.87-.87a.892.892 0 00-.87-.87h-7.656c5.162-2.436 8.526-7.308 8.526-13.224zM32.828 47.734h-7.656c-8.294 0-14.268-5.51-14.268-13.108v-2.262h36.25v2.262c0 7.598-6.032 13.108-14.326 13.108zm16.646-35.496c-.174-.174-.406-.232-.638-.232l-37.41.58a.892.892 0 00-.87.87v2.378c0 .464.406.87.87.87l3.19.058c-.058 1.276.232 2.784 1.276 4.292 1.74 2.436.754 4.698.232 5.51h-6.09a.892.892 0 00-.87.87v4.176c0 .464.406.87.87.87h37.99c.464 0 .87-.406.87-.87v-4.176a.892.892 0 00-.87-.87H29.696c.696-1.624.928-4.06-.754-6.496-.754-1.102-.986-2.146-.986-3.074l20.88.348c.232 0 .464-.116.638-.232.174-.174.232-.406.232-.638v-3.538c0-.29-.116-.522-.232-.696zm-34.51 2.726l-2.61-.058v-.638l2.9-.058c-.116.29-.174.522-.29.754zm8.12-.812c.058 0 .058 0 0 0l3.828-.116c-.174.348-.29.696-.406 1.102l-3.944-.058c.232-.522.522-.87.522-.928zm-5.8.058l3.828-.058c-.116.29-.232.58-.348.928l-3.944-.058c.174-.406.406-.696.464-.812zm.058 5.8c-.812-1.16-1.044-2.32-.986-3.248l4.06.058c-.058 1.276.29 2.726 1.276 4.176 1.74 2.436.754 4.698.232 5.51h-3.828c.696-1.624.928-4.06-.754-6.496zm29.812 10.672h-36.25v-2.436h36.25v2.436zm-19.372-4.176h-3.828c.696-1.624.928-4.06-.754-6.496-.812-1.16-1.044-2.262-.986-3.132l4.06.058c-.058 1.276.29 2.668 1.276 4.118 1.682 2.436.696 4.64.232 5.452zm20.184-11.02l-19.604-.29c.232-.58.522-.986.58-1.044.058-.058.058-.116.116-.174l18.966-.29v1.798h-.058zm-25.81 29.058c-3.77 0-5.336-2.842-5.568-4.35-.058-.464.232-.928.696-.986.464-.058.928.232.986.696.058.348.696 3.132 4.176 2.9.464 0 .87.348.928.812 0 .464-.348.87-.812.928h-.406z"/></svg></svg>