<?xml version="1.0" encoding="utf-8"?><svg viewBox="0 0 58 58" xmlns="http://www.w3.org/2000/svg" xmlns:xlink="http://www.w3.org/1999/xlink"><style>:root>svg{display:none}:root>svg:target{display:block}</style><svg viewBox="0 0 11 6" id="arrow-select" xmlns="http://www.w3.org/2000/svg"><path d="M5.039 5.84L.16.94a.554.554 0 010-.779.545.545 0 01.774 0l4.492 4.512L9.917.162a.546.546 0 01.775 0 .554.554 0 010 .779l-4.879 4.9a.551.551 0 01-.774 0z"/></svg><svg viewBox="0 0 6 10" id="breadcrumbs" xmlns="http://www.w3.org/2000/svg"><path d="M5.722 4.683L.718.123a.422.422 0 00-.595 0 .417.417 0 000 .591L4.826 5 .124 9.286a.417.417 0 000 .591c.164.164.43.164.594 0l5.004-4.56A.412.412 0 005.842 5a.416.416 0 00-.12-.317z"/></svg><svg viewBox="0 0 24 24" id="cart" xmlns="http://www.w3.org/2000/svg"><path fill-rule="evenodd" clip-rule="evenodd" d="M7.544 19.952a1.296 1.296 0 010 2.589 1.296 1.296 0 010-2.59zm11.28 0c.716 0 1.297.58 1.297 1.294a1.296 1.296 0 11-1.296-1.294zM3.27 3.009l2.08.36c.335.06.59.337.619.677l.235 2.801h.873l.424.001h1.604l.38.001 1.77.001h.33l1.242.001h.291l1.092.001h.255l.952.001h.847l.196.001h.725l.166.001h.612l.14.001h.389l.12.001h.433l.097.001h.266l.081.001h.286l.063.001h.167l.05.001.17.001h.128l.026.001h.067l.018.001h.046l.012.001h.028l.008.001.02.001h.004l.013.001a2.083 2.083 0 011.38.82c.335.447.475.998.395 1.55l-.95 6.559a2.562 2.562 0 01-2.522 2.188H7.976a2.562 2.562 0 01-2.54-2.342L4.522 4.748l-1.507-.26a.752.752 0 01-.612-.868.76.76 0 01.867-.61zm3.607 5.339h-.547l.603 7.171c.044.553.495.966 1.046.966h10.917c.52 0 .966-.387 1.04-.902l.95-6.56a.587.587 0 00-.112-.438.58.58 0 00-.388-.23h-.16l-.076.001-.566.001h-1.708l-1.52-.001H15.219l-.297-.001h-.91l-.31-.001h-.628l-.317-.001-.958-.001H10.838l-.32-.001h-.635l-.315-.001h-.93l-.304-.001-1.176-.001h-.282zm10.412 2.196a.75.75 0 010 1.5h-2.771a.75.75 0 110-1.5h2.771z"/></svg><svg viewBox="0 0 12 9" id="check" xmlns="http://www.w3.org/2000/svg"><path d="M4.196 8.393a.587.587 0 01-.416-.173L.173 4.613a.588.588 0 11.832-.833l3.191 3.19L10.995.174a.588.588 0 11.832.833L4.613 8.22a.588.588 0 01-.417.173z"/></svg><svg viewBox="0 0 18 18" id="close-filters" xmlns="http://www.w3.org/2000/svg"><g clip-path="url(#aeclip0_2_1005)"><path d="M10.055 9.005l7.716-7.716a.75.75 0 10-1.06-1.06L8.995 7.945 1.28.229a.75.75 0 00-1.06 1.06l7.716 7.716L.22 16.72a.75.75 0 001.06 1.06l7.716-7.716 7.716 7.716a.75.75 0 001.06-1.06l-7.716-7.716z"/></g><defs><clipPath id="aeclip0_2_1005"><path d="M0 0h18v18H0z"/></clipPath></defs></svg><svg viewBox="0 0 24 24" id="dark-theme" xmlns="http://www.w3.org/2000/svg"><path d="M12 22c5.523 0 10-4.477 10-10S17.523 2 12 2 2 6.477 2 12s4.477 10 10 10zm0-1.5v-17a8.5 8.5 0 010 17z"/></svg><svg viewBox="0 0 34 34" id="delivery" xmlns="http://www.w3.org/2000/svg"><path d="M6.518 24.469l.407.97c.288-.117.587-.205.893-.26l-.19-1.034c-.38.069-.753.177-1.11.324zM3.727 27.075l.956.458a4.322 4.322 0 011.46-1.676l-.6-.867a5.378 5.378 0 00-1.816 2.085z"/><path d="M32.938 26.78c0-.905-.337-1.777-.948-2.45l-.791.7c.314.346.529.769.623 1.225h-3.666a.536.536 0 00-.442.233l-1.967 2.917h-1.31V27.83a3.659 3.659 0 011.09-2.598 3.745 3.745 0 012.63-1.078h1.062c.522 0 1.033.152 1.468.438l.588-.875a3.723 3.723 0 00-1.525-.575v-1.613a.522.522 0 00-.156-.371.534.534 0 00-.375-.154 2.14 2.14 0 01-1.502-.616 2.09 2.09 0 01-.623-1.485v-2.1h1.593c.141 0 .276-.055.376-.154a.522.522 0 00.156-.37v-3.677a.522.522 0 00-.156-.37.535.535 0 00-.375-.154h-.938c-.221 0-.442.03-.656.089v-.615a.521.521 0 00-.117-.328L25.24 9.077a1.82 1.82 0 00-.43-2.366 1.873 1.873 0 00-2.43.078 1.822 1.822 0 00-.274 2.388 1.86 1.86 0 001.06.74c.432.112.89.067 1.291-.127l1.575 1.947v.662l-2.335-.77a1.448 1.448 0 00-.476-.077h-4.382l-2.522-2.908A1.58 1.58 0 0017 7.352v-.2l.769-.38a.53.53 0 00.276-.336.518.518 0 00-.072-.426l-.872-1.293a.532.532 0 00.309-.182.52.52 0 00.121-.334c0-.835-.337-1.636-.934-2.226a3.21 3.21 0 00-2.253-.924c-1 0-1.927.284-2.616 1.036a3.123 3.123 0 00-.808 2.427l.113 1.124c.048.484.282.932.655 1.25v9.915c0 .37.098.731.285 1.05h-.817c-.18 0-.36.03-.531.09v-6.916c0-.417-.168-.818-.467-1.113a1.605 1.605 0 00-1.127-.462H2.656c-.422 0-.827.167-1.126.462a1.568 1.568 0 00-.468 1.113v2.626h1.063v-1.05h7.438v5.25H2.125v-3.15H1.062v4.287c0 .246.088.485.247.673.16.19.381.317.626.36l4.971.894v1.232c-.45.103-.89.247-1.314.43H2.656a.534.534 0 00-.375.154.522.522 0 00-.156.371v2.492a7.393 7.393 0 00-1.063 3.81c0 .139.056.272.156.37.1.099.235.154.376.154h2.435c.317.776.862 1.44 1.564 1.908a4.286 4.286 0 004.752 0 4.211 4.211 0 001.564-1.908h8.932a2.687 2.687 0 001.966-.859l.568-.618v1.477c0 .14.056.273.156.372.1.098.234.153.375.153h1.101c.468.801 1.19 1.427 2.054 1.78a4.297 4.297 0 002.727.177 4.253 4.253 0 002.271-1.5 4.17 4.17 0 00.705-3.745.522.522 0 00.173-.387zM22.843 8.14a.782.782 0 01.492-.728.805.805 0 01.868.17.786.786 0 01.173.859.803.803 0 01-1.3.255.784.784 0 01-.233-.557zm-7.6 18.64c-.52 0-1.02-.205-1.387-.569a1.93 1.93 0 01-.576-1.37c0-.516.132-.998.48-1.395.31-.353.737-.583 1.205-.65a2.377 2.377 0 001.454-.783c.374-.426.58-.97.58-1.534a.518.518 0 00-.156-.372 1.56 1.56 0 00.065-1.203h1.443l-2.332 5.99a1.208 1.208 0 00-.082.453v1.433h-.694zM17 25.73h2.656a.535.535 0 01.508.372.52.52 0 01-.213.59 1.074 1.074 0 01-.424.088H17v-1.05zm4.123-.092a1.582 1.582 0 00-.484-.623 1.608 1.608 0 00-.727-.315l2.2-5.235a3.03 3.03 0 00-.284-2.875 3.085 3.085 0 00-1.116-1 3.126 3.126 0 00-1.46-.362H17v-.833l.156.154a.533.533 0 00.375.154h5.404a1.557 1.557 0 00.201 1.435 1.607 1.607 0 001.301.666h.002a2.592 2.592 0 00-.533 1.575v4.073c0 .278-.112.545-.311.742l-2.472 2.444zm3.314-9.885a.535.535 0 01-.49-.324.52.52 0 01.115-.572.532.532 0 01.579-.114.53.53 0 01.328.485c0 .14-.056.273-.156.371a.535.535 0 01-.375.154zm3.72-2.625v2.625h-1.063v-2.462a1.41 1.41 0 01.656-.163h.406zm-2.126 2.1a1.56 1.56 0 00-.673-1.286 1.603 1.603 0 00-1.452-.199v-.937l2.125.7v1.722zm-7.437-2.626h4.25v1.05H17.75l-3.032-2.996-.75.743 1.969 1.946v1.883H12.75V8.927h2.412l3.028 3.492a.53.53 0 00.404.183zm-6.078-9.81c.485-.53 1.13-.691 1.828-.691.47 0 .928.155 1.3.44.373.286.64.685.757 1.135h-2.057a.535.535 0 00-.376.154.522.522 0 00-.155.371v1.247a.848.848 0 01-.24.586.868.868 0 01-1.482-.5l-.114-1.124a2.054 2.054 0 01.539-1.618zm.433 4.56c.51 0 1-.202 1.361-.558.361-.357.564-.841.565-1.346v-.722h1.063a.52.52 0 00.089.292l.728 1.08-.524.26a.53.53 0 00-.294.469v.525c0 .139-.056.272-.155.37a.535.535 0 01-.376.155H12.75V7.34c.066.007.133.01.2.01zm-.199 9.451v-.525h6.501c.335 0 .665.082.96.238.296.156.547.382.733.657a1.997 1.997 0 01.187 1.889l-2.36 5.617h-1.529l2.379-6.112a.52.52 0 00-.249-.653.536.536 0 00-.247-.06h-5.313a1.07 1.07 0 01-.75-.309 1.045 1.045 0 01-.312-.742zm-1.594 2.1h4.25c.141 0 .276.056.376.154a.522.522 0 01-.376.897h-4.25a.534.534 0 01-.375-.154.522.522 0 01.375-.896zm-9.031-7.35v-.526c0-.139.056-.272.156-.37a.535.535 0 01.375-.155h6.375c.141 0 .276.056.376.154.1.099.155.232.155.371v.525H2.125zm0 7.35h7.438v1.05H7.485l-5.36-.963v-.086zm1.72 4.726c-.231.185-.45.384-.658.594v-.594h.657zm4.124 7.877a3.24 3.24 0 01-1.592-.426 3.194 3.194 0 01-1.168-1.15h1.356a2.136 2.136 0 002.808 0h1.356a3.193 3.193 0 01-1.169 1.15 3.24 3.24 0 01-1.591.426zm14.051-3.141a1.595 1.595 0 01-1.18.515H2.148a6.358 6.358 0 011.592-3.701 6.487 6.487 0 013.513-2.03 2.01 2.01 0 01.418-.045h3.486v-1.05H7.97v-1.05h7.856a1.314 1.314 0 01-1.01.753c-.72.102-1.38.458-1.857 1-.514.586-.74 1.318-.74 2.083 0 .712.258 1.4.726 1.94H8.5v1.05h11.027a2.176 2.176 0 001.503-.615l3.316-3.278c.398-.395.621-.928.623-1.485v-4.074c0-.325.102-.643.293-.909.19-.266.459-.467.77-.576v2.01c0 .745.267 1.465.753 2.033.486.569 1.16.95 1.902 1.074v1.094c-.33 0-.667-.02-.995.023a4.82 4.82 0 00-2.683 1.15 4.727 4.727 0 00-1.507 2.476l-1.482 1.612zm6.42-1.06h.027l.642.634a.588.588 0 01.074.743.594.594 0 01-.612.25.597.597 0 01-.305-.16l-.489-.484.663-.983zm.247 4.2c-.46 0-.914-.1-1.332-.291a3.2 3.2 0 01-1.09-.813.528.528 0 00.208-.18l.46-.682c.257.37.626.65 1.055.799.428.148.893.156 1.327.024a2.123 2.123 0 001.083-.76 2.083 2.083 0 00.129-2.297h1.166a3.118 3.118 0 01-.403 2.869 3.178 3.178 0 01-1.137.978 3.218 3.218 0 01-1.465.354z"/><path d="M4.25 13.652H3.187v3.15H4.25v-3.15z"/></svg><svg viewBox="0 0 58 58" id="desserts" xmlns="http://www.w3.org/2000/svg"><path d="M29.927 12.47c.29-.58.813-1.276 1.509-1.16.463.058.928-.232 1.044-.696.116-.464-.232-.928-.696-1.044-2.03-.406-3.19 1.392-3.712 2.726-1.74.29-3.075 1.856-3.075 3.654 0 2.03 1.683 3.712 3.712 3.712 2.03 0 3.713-1.682 3.713-3.712.058-1.566-1.044-2.958-2.494-3.48zm-1.16 5.51a1.956 1.956 0 01-1.971-1.972c0-1.102.87-1.972 1.971-1.972 1.102 0 1.973.87 1.973 1.972 0 1.102-.928 1.972-1.973 1.972zm21.924 26.68h-2.668V34.626c0-2.958-2.436-5.394-5.394-5.394H15.37c-2.957 0-5.393 2.436-5.393 5.394V44.66H7.306a.892.892 0 00-.87.87c0 .464.406.87.87.87H50.633c.464 0 .87-.406.87-.87 0-.464-.347-.87-.812-.87zM15.37 30.972h27.203a3.639 3.639 0 013.653 3.654v3.016c-1.334.522-5.22 1.798-8.526-.174-5.683-3.422-11.6-3.422-17.515 0-3.945 2.378-7.367.87-8.469.232v-3.132c.059-1.972 1.683-3.596 3.655-3.596zM11.775 44.66v-4.988c.986.406 2.378.87 4.06.87 1.566 0 3.422-.406 5.277-1.508 5.337-3.074 10.614-3.074 15.719 0 3.538 2.146 7.482 1.276 9.395.58v5.046H11.773zm24.07-26.274H22.154a4.159 4.159 0 00-4.175 4.176v7.598c0 .464.405.87.87.87h20.242c.464 0 .87-.406.87-.87v-7.656a4.134 4.134 0 00-4.119-4.118zm-13.689 1.74h13.63a2.45 2.45 0 012.437 2.436v.29c-1.276-.464-3.017-.522-4.757.754-2.03 1.508-3.886.058-3.944.058-.116-.116-2.726-2.32-6.495-.116-1.973 1.16-2.959.696-3.306.406v-1.392c.058-1.392 1.102-2.436 2.436-2.436zm-2.378 9.106V25.81c.986.29 2.436.232 4.176-.812 2.669-1.566 4.409-.174 4.524-.058.58.464 1.74 1.044 3.075 1.044.928 0 1.971-.29 3.016-1.044 1.566-1.16 3.074-.58 3.712-.232v4.524H19.776z"/></svg><svg viewBox="0 0 32 58" id="drink" xmlns="http://www.w3.org/2000/svg"><g clip-path="url(#aiclip0_16_1423)"><path d="M31.196 14.313h-1.15v-2.01a.804.804 0 00-.804-.804H19.49V5.44l3.64-3.509a.331.331 0 00.008-.473L21.825.101a.333.333 0 00-.36-.077.328.328 0 00-.108.07L17.616 3.7a.344.344 0 00-.075.109l-.579 1.36a.341.341 0 00-.026.13v6.2H2.758a.804.804 0 00-.804.804v2.01H.804a.805.805 0 00-.804.804v5.202a.804.804 0 00.804.804h1.113L5.28 57.271a.804.804 0 00.8.729h19.84a.803.803 0 00.8-.73l3.363-36.15h1.113a.804.804 0 00.804-.805v-5.201a.805.805 0 00-.804-.8zM17.598 5.367l.526-1.237L21.579.8l.85.884-3.498 3.377a.328.328 0 00-.103.235v6.2h-1.23V5.367zm-14.036 7.74h24.873v1.207H3.562v-1.207zM26.896 38.02c-5.534.302-8.03 3.828-10.446 7.244-2.441 3.45-4.756 6.715-10.02 7.008L5.395 41.154c5.601-.32 8.638-3.848 11.579-7.264 2.94-3.416 5.742-6.667 10.954-6.982L26.896 38.02zm-1.71 18.372H6.81l-.322-3.46c5.57-.32 8.074-3.86 10.498-7.282 2.414-3.411 4.702-6.64 9.843-6.957l-1.642 17.7zm2.809-30.152c-5.563.3-8.589 3.815-11.519 7.219-2.983 3.464-5.809 6.742-11.139 7.033L3.531 21.119h24.937l-.473 5.12zm2.4-6.728H1.608v-3.595h28.784l.003 3.595z"/></g><defs><clipPath id="aiclip0_16_1423"><path d="M0 0h32v58H0z"/></clipPath></defs></svg><svg viewBox="0 0 39 39" id="facebook" xmlns="http://www.w3.org/2000/svg"><circle cx="19.5" cy="19.5" r="19.5"/><path d="M17.547 29.526v-9.631H15v-3.468h2.547v-2.962c0-2.328 1.504-4.465 4.97-4.465 1.404 0 2.442.135 2.442.135l-.082 3.238s-1.058-.01-2.213-.01c-1.25 0-1.45.576-1.45 1.532v2.532h3.763l-.164 3.468h-3.6v9.631h-3.666z"/></svg><svg viewBox="0 0 32 36" id="filters" xmlns="http://www.w3.org/2000/svg"><g clip-path="url(#akclip0_2_993)"><path d="M13.78 28.125H1.14C.51 28.125 0 28.63 0 29.25s.51 1.125 1.139 1.125H13.78c.528 2.567 2.825 4.5 5.58 4.5 2.754 0 5.05-1.933 5.578-4.5h5.809c.628 0 1.139-.504 1.139-1.125 0-.62-.51-1.125-1.14-1.125h-5.808c-.527-2.567-2.824-4.5-5.579-4.5-2.754 0-5.051 1.933-5.579 4.5zm8.996 1.125c0 1.864-1.53 3.375-3.417 3.375-1.887 0-3.416-1.51-3.416-3.375 0-1.864 1.53-3.375 3.416-3.375 1.887 0 3.416 1.51 3.416 3.375zM2.393 16.875H1.139C.51 16.875 0 17.379 0 18s.51 1.125 1.139 1.125h1.254c.527 2.567 2.824 4.5 5.578 4.5 2.755 0 5.052-1.933 5.58-4.5h17.196c.628 0 1.139-.504 1.139-1.125s-.51-1.125-1.14-1.125H13.55c-.527-2.567-2.824-4.5-5.579-4.5-2.754 0-5.051 1.933-5.578 4.5zM11.388 18c0 1.864-1.53 3.375-3.417 3.375-1.887 0-3.416-1.51-3.416-3.375 0-1.864 1.53-3.375 3.416-3.375 1.887 0 3.417 1.51 3.417 3.375zm6.947-12.375H1.14C.51 5.625 0 6.129 0 6.75s.51 1.125 1.139 1.125h17.197c.527 2.567 2.824 4.5 5.578 4.5 2.755 0 5.052-1.933 5.58-4.5h1.253c.628 0 1.139-.504 1.139-1.125 0-.62-.51-1.125-1.14-1.125h-1.253c-.527-2.567-2.824-4.5-5.579-4.5-2.754 0-5.051 1.933-5.579 4.5zm8.996 1.125c0 1.864-1.53 3.375-3.417 3.375-1.887 0-3.416-1.51-3.416-3.375 0-1.864 1.53-3.375 3.416-3.375 1.887 0 3.417 1.51 3.417 3.375z"/></g><defs><clipPath id="akclip0_2_993"><path d="M0 0h31.886v36H0z"/></clipPath></defs></svg><svg viewBox="0 0 39 39" id="instagram" xmlns="http://www.w3.org/2000/svg"><circle cx="19.5" cy="19.5" r="19.5"/><path d="M19.748 16.499a3.258 3.258 0 00-3.252 3.251 3.258 3.258 0 003.252 3.251 3.258 3.258 0 003.25-3.251 3.258 3.258 0 00-3.25-3.251zm9.751 3.251c0-1.346.013-2.68-.063-4.025-.076-1.56-.432-2.946-1.573-4.088-1.144-1.144-2.527-1.497-4.088-1.573-1.347-.075-2.681-.063-4.025-.063-1.346 0-2.68-.012-4.025.063-1.56.076-2.946.432-4.088 1.573-1.144 1.144-1.497 2.527-1.573 4.088-.075 1.347-.063 2.681-.063 4.025 0 1.344-.012 2.68.063 4.025.076 1.56.432 2.946 1.573 4.088 1.144 1.144 2.527 1.497 4.088 1.573 1.347.076 2.681.063 4.025.063 1.346 0 2.68.013 4.025-.063 1.56-.076 2.946-.432 4.088-1.573 1.144-1.144 1.497-2.527 1.573-4.088.078-1.344.063-2.679.063-4.025zm-9.751 5.003a4.996 4.996 0 01-5.003-5.003 4.996 4.996 0 015.003-5.003 4.996 4.996 0 015.002 5.003 4.996 4.996 0 01-5.002 5.003zm5.207-9.042a1.167 1.167 0 01-1.168-1.169c0-.646.522-1.168 1.168-1.168a1.167 1.167 0 01.827 1.995 1.166 1.166 0 01-.827.342z"/></svg><svg viewBox="0 0 24 24" id="location" xmlns="http://www.w3.org/2000/svg"><g fill-rule="evenodd" clip-rule="evenodd"><path d="M14.5 10.5a2.5 2.5 0 10-5 0 2.5 2.5 0 005 0z"/><path d="M12 21c-1.199 0-7.5-5.102-7.5-10.437C4.5 6.387 7.857 3 12 3c4.142 0 7.5 3.387 7.5 7.563C19.5 15.898 13.198 21 12 21z"/></g></svg><svg viewBox="0 0 24 24" id="message" xmlns="http://www.w3.org/2000/svg"><path d="M17.903 8.852l-4.443 3.613c-.84.666-2.02.666-2.86 0L6.12 8.852"/><path fill-rule="evenodd" clip-rule="evenodd" d="M16.909 21C19.95 21.008 22 18.51 22 15.438V8.57C22 5.499 19.95 3 16.909 3H7.09C4.05 3 2 5.499 2 8.57v6.868C2 18.51 4.05 21.008 7.091 21h9.818z"/></svg><svg viewBox="0 0 11 18" id="pagination-next" xmlns="http://www.w3.org/2000/svg"><path d="M10.784 8.43L1.776.22a.76.76 0 00-1.07 0 .75.75 0 000 1.066L9.17 9 .706 16.714a.75.75 0 000 1.066.76.76 0 001.07 0l9.008-8.21A.741.741 0 0011 9a.748.748 0 00-.215-.57z"/></svg><svg viewBox="0 0 11 18" id="pagination-prev" xmlns="http://www.w3.org/2000/svg"><path d="M.216 9.571l9.008 8.209a.76.76 0 001.07 0 .75.75 0 000-1.065L1.83 9l8.464-7.714a.75.75 0 000-1.065.76.76 0 00-1.07 0L.215 8.43A.742.742 0 000 9a.748.748 0 00.215.571z"/></svg><svg viewBox="0 0 24 24" id="phone" xmlns="http://www.w3.org/2000/svg"><path d="M14.354 2.5a7.97 7.97 0 017.04 7.032M14.354 6.043a4.426 4.426 0 013.5 3.5"/><path fill-rule="evenodd" clip-rule="evenodd" d="M11.031 12.472c3.99 3.988 4.894-.625 7.434 1.913 2.449 2.448 3.857 2.938.754 6.04-.389.312-2.858 4.07-11.535-4.605C-.993 7.144 2.762 4.672 3.074 4.284c3.11-3.11 3.593-1.695 6.041.753 2.54 2.54-2.072 3.447 1.916 7.435z"/></svg><svg viewBox="0 0 19 32" id="product-next" xmlns="http://www.w3.org/2000/svg"><path d="M18.31 14.773L2.297.387a1.365 1.365 0 00-1.903 0 1.303 1.303 0 000 1.867l15.048 13.52L.395 29.293a1.303 1.303 0 000 1.866 1.364 1.364 0 001.904 0l16.013-14.386c.28-.275.4-.64.381-1a1.3 1.3 0 00-.383-1.001z"/></svg><svg viewBox="0 0 19 32" id="product-prev" xmlns="http://www.w3.org/2000/svg"><path d="M.385 15.226L16.398.84a1.364 1.364 0 011.903 0 1.303 1.303 0 010 1.867L3.253 16.227 18.3 29.747a1.303 1.303 0 010 1.866 1.365 1.365 0 01-1.903 0L.383 17.227a1.29 1.29 0 01-.381-.999 1.3 1.3 0 01.383-1.002z"/></svg><svg viewBox="0 0 34 34" id="restaurant" xmlns="http://www.w3.org/2000/svg"><path d="M32.406 28.156h-3.718V17.484a2.31 2.31 0 001.69-3.092l-1.69-4.397V1.594a.531.531 0 00-.532-.532H5.844a.531.531 0 00-.532.532v8.4l-1.69 4.398a2.31 2.31 0 001.69 3.092v10.672H1.595a.531.531 0 00-.532.532v3.718a.532.532 0 00.532.532h30.812a.532.532 0 00.532-.532v-3.718a.53.53 0 00-.532-.532zm-5.843 0v-11.33c.29.3.658.517 1.062.625v10.705h-1.063zm-4.25.532v3.187h-2.125v-3.719h1.062a.53.53 0 00.531-.531v-1.594a.531.531 0 00-.531-.531h-3.188a.531.531 0 00-.53.531v1.594a.531.531 0 00.53.531h1.063v3.719H17v-3.188a.53.53 0 00-.531-.53h-1.063v-1.595a.529.529 0 00-.531-.53h-1.063v-8.55a2.309 2.309 0 001.313-.79 2.29 2.29 0 001.781.84h.188a2.288 2.288 0 001.78-.84c.077.092.161.178.251.258v1.644a2.659 2.659 0 00-2.656 2.656.533.533 0 00.531.531h5.313a.529.529 0 00.53-.531 2.659 2.659 0 00-2.655-2.656v-1.111c.154.032.311.048.469.048h.166a2.305 2.305 0 001.802-.864 2.302 2.302 0 001.805.864h.102c.334 0 .664-.07.968-.21v8.71h-1.063a.53.53 0 00-.53.532v1.593h-1.063a.532.532 0 00-.532.532zm-3.72-1.594v-.532h2.126v.532h-2.125zM8.264 14.893l1.173-4.268h2.156l-.79 4.8a1.243 1.243 0 01-1.232 1.044h-.102a1.248 1.248 0 01-1.204-1.576zM8.5 17.32c.304.14.634.21.968.21h.102a2.3 2.3 0 001.805-.864 2.306 2.306 0 001.375.825v2.695H8.5v-2.866zm4.677-.852a1.248 1.248 0 01-1.231-1.451l.724-4.393h2.175l-.256 4.664a1.248 1.248 0 01-1.246 1.18h-.166zm4.822-.39a1.236 1.236 0 01-.905.39h-.188a1.25 1.25 0 01-1.245-1.313l.248-4.531h2.182l.248 4.528v.003a1.233 1.233 0 01-.34.923zm1.412-.79l-.256-4.664h2.175l.724 4.393a1.248 1.248 0 01-1.231 1.45h-.166a1.248 1.248 0 01-1.246-1.179zm.776 4.367a1.597 1.597 0 011.503 1.063h-4.068a1.597 1.597 0 011.503-1.063h1.063zm5.338-3.679a1.239 1.239 0 01-.992.492h-.104a1.244 1.244 0 01-1.23-1.045l-.792-4.799h2.157l1.172 4.265v.003a1.24 1.24 0 01-.211 1.084zm-.556 11.117h.531v1.062h-.531v-1.062zm4.418-12.321a1.248 1.248 0 11-2.368.779l-1.354-4.927h2.127l1.595 4.148zM6.375 2.125h21.25v7.438H6.375V2.125zM4.749 15.928a1.23 1.23 0 01-.136-1.155l1.595-4.148h2.127L6.98 15.552a1.252 1.252 0 01-1.785.775 1.23 1.23 0 01-.447-.4zm1.626 1.523a2.305 2.305 0 001.063-.626v11.331H6.375V17.452zm4.25 14.424h-8.5v-2.656h8.5v2.656zm.531-3.719H8.5V21.25h4.25v10.625h-1.063v-3.188a.53.53 0 00-.53-.53zm2.656-1.062h.532v1.593a.529.529 0 00.531.532h1.063v2.656h-2.126v-4.781zm18.063 4.781h-8.5v-2.656h8.5v2.656z"/><path d="M20.719 6.375h-.577a3.195 3.195 0 00-2.61-2.611v-.576a.531.531 0 10-1.063 0v.576a3.195 3.195 0 00-2.611 2.611h-.577a.531.531 0 00-.531.531 2.127 2.127 0 002.125 2.125h4.25a2.127 2.127 0 002.125-2.125.531.531 0 00-.531-.531zM17 4.781a2.129 2.129 0 012.058 1.594h-4.116A2.129 2.129 0 0117 4.781zm2.125 3.188h-4.25a1.063 1.063 0 01-.92-.532h6.09a1.064 1.064 0 01-.92.532zM13.045 5.223a.532.532 0 00.236-.442V3.188H12.22v1.29a2.339 2.339 0 01-.531.194V3.188h-1.063v1.484a2.337 2.337 0 01-.531-.194v-1.29H9.03V4.78a.531.531 0 00.237.442c.409.273.872.454 1.357.531v3.277h1.063V5.754a3.406 3.406 0 001.357-.53zM22.844 2.656a2.125 2.125 0 00-.532 4.183v2.192h1.063V6.84a2.125 2.125 0 00-.531-4.183zm0 3.188a1.063 1.063 0 110-2.125 1.063 1.063 0 010 2.125z"/></svg><svg viewBox="0 0 24 20" id="reviews-left" xmlns="http://www.w3.org/2000/svg"><path d="M5.217 9.565c1.276.116 2.32.609 3.13 1.479.812.869 1.218 1.97 1.218 3.304 0 1.45-.435 2.637-1.304 3.565-.87.87-1.971 1.304-3.304 1.304-1.508 0-2.725-.55-3.653-1.652C.434 16.464 0 14.754 0 12.435 0 7.97 1.478 4.115 4.435.87c.58-.58 1.246-.87 2-.87.637 0 1.188.232 1.652.696.464.405.696.898.696 1.478 0 .638-.232 1.188-.696 1.652-1.507 1.565-2.464 3.478-2.87 5.74zm14.435 0c1.275.116 2.319.609 3.13 1.479.812.869 1.218 1.97 1.218 3.304 0 1.45-.435 2.637-1.304 3.565-.87.87-1.971 1.304-3.305 1.304-1.507 0-2.724-.55-3.652-1.652-.87-1.101-1.304-2.811-1.304-5.13 0-4.464 1.478-8.32 4.435-11.565.58-.58 1.246-.87 2-.87.637 0 1.188.232 1.652.696.463.405.695.898.695 1.478 0 .638-.232 1.188-.695 1.652-1.507 1.565-2.464 3.478-2.87 5.74z"/></svg><svg viewBox="0 0 24 20" id="reviews-right" xmlns="http://www.w3.org/2000/svg"><path d="M18.783 9.565c-1.276.116-2.32.609-3.13 1.479-.812.869-1.218 1.97-1.218 3.304 0 1.45.435 2.637 1.304 3.565.87.87 1.971 1.304 3.305 1.304 1.507 0 2.724-.55 3.652-1.652.87-1.101 1.304-2.811 1.304-5.13C24 7.97 22.522 4.115 19.565.87c-.58-.58-1.246-.87-2-.87-.638 0-1.188.232-1.652.696-.464.405-.696.898-.696 1.478 0 .638.232 1.188.696 1.652 1.507 1.565 2.464 3.478 2.87 5.74zm-14.435 0c-1.276.116-2.319.609-3.13 1.479C.405 11.912 0 13.014 0 14.348c0 1.45.435 2.637 1.304 3.565.87.87 1.971 1.304 3.305 1.304 1.507 0 2.724-.55 3.652-1.652.87-1.101 1.304-2.811 1.304-5.13C9.565 7.97 8.087 4.115 5.13.87 4.55.29 3.884 0 3.13 0c-.637 0-1.188.232-1.652.696-.464.405-.695.898-.695 1.478 0 .638.231 1.188.695 1.652 1.508 1.565 2.464 3.478 2.87 5.74z"/></svg><svg viewBox="0 0 58 58" id="rolls" xmlns="http://www.w3.org/2000/svg"><path d="M17.052 34.568c-6.554 0-11.542-2.378-11.542-5.51 0-3.132 4.988-5.51 11.542-5.51 6.612 0 11.542 2.378 11.542 5.51 0 3.132-4.988 5.51-11.542 5.51zm0-9.28c-5.626 0-9.802 1.972-9.802 3.77s4.176 3.77 9.802 3.77c5.8 0 9.802-1.972 9.802-3.77s-4.234-3.77-9.802-3.77zm0 6.728c-3.074 0-6.38-.928-6.38-3.016s3.306-3.016 6.38-3.016 6.38.928 6.38 3.016-3.306 3.016-6.38 3.016zm0-4.234c-2.9 0-4.524.87-4.64 1.276.058.348 1.74 1.276 4.64 1.276 2.9 0 4.524-.87 4.64-1.276-.116-.406-1.798-1.276-4.64-1.276zm-.406 20.242c-3.944 0-6.67-.754-8.352-1.334a4.337 4.337 0 01-2.784-4.06V29.058c0-.464.406-.87.87-.87.464 0 .87.406.87.87 0 1.798 4.176 3.77 9.802 3.77 5.8 0 9.802-1.972 9.802-3.77 0-.464.406-.87.87-.87.464 0 .87.406.87.87v13.456c0 1.856-1.16 3.48-2.9 4.06-1.914.638-4.988 1.45-9.048 1.45zM7.25 32.016v10.556c0 1.044.696 2.03 1.682 2.436 1.508.58 4.06 1.218 7.714 1.218 3.828 0 6.728-.754 8.468-1.334a2.561 2.561 0 001.74-2.436v-10.44c-2.03 1.566-5.568 2.494-9.802 2.494-4.234.058-7.83-.928-9.802-2.494zm14.384 10.092v-8.7a.892.892 0 00-.87-.87.892.892 0 00-.87.87v8.758c0 .464.406.87.87.87.464 0 .87-.406.87-.928zm19.604-17.69c-6.554 0-11.542-2.378-11.542-5.51 0-3.132 4.988-5.51 11.542-5.51 6.612 0 11.542 2.378 11.542 5.51 0 3.132-4.93 5.51-11.542 5.51zm0-9.28c-5.626 0-9.802 1.972-9.802 3.77s4.176 3.77 9.802 3.77c5.8 0 9.802-1.972 9.802-3.77s-4.176-3.77-9.802-3.77zm0 6.728c-3.074 0-6.38-.928-6.38-3.016s3.306-3.016 6.38-3.016 6.38.928 6.38 3.016-3.306 3.016-6.38 3.016zm0-4.234c-2.9 0-4.524.87-4.64 1.276.058.348 1.74 1.276 4.64 1.276 2.9 0 4.524-.87 4.64-1.276-.116-.406-1.74-1.276-4.64-1.276zm-.406 20.242c-3.944 0-6.67-.754-8.352-1.334a4.337 4.337 0 01-2.784-4.06V18.908c0-.464.406-.87.87-.87.464 0 .87.406.87.87 0 1.798 4.176 3.77 9.802 3.77 5.8 0 9.802-1.972 9.802-3.77 0-.464.406-.87.87-.87.464 0 .87.406.87.87v13.456c0 1.856-1.16 3.48-2.9 4.06-1.856.638-4.988 1.45-9.048 1.45zm-9.396-16.008V32.48c0 1.044.696 2.03 1.682 2.436 1.508.58 4.06 1.218 7.714 1.218 3.828 0 6.728-.754 8.468-1.334a2.561 2.561 0 001.74-2.436v-10.44c-2.03 1.566-5.568 2.494-9.802 2.494s-7.772-.986-9.802-2.552zm14.442 10.092v-8.7a.892.892 0 00-.87-.87.892.892 0 00-.87.87v8.758c0 .464.406.87.87.87.464 0 .87-.406.87-.928z"/></svg><svg viewBox="0 0 24 24" id="search" xmlns="http://www.w3.org/2000/svg"><path d="M14.282.51a9.204 9.204 0 00-9.206 9.207c0 2.198.769 4.214 2.053 5.798L.8 21.844a.956.956 0 000 1.354.956.956 0 001.354 0l6.329-6.328a9.172 9.172 0 005.798 2.053 9.204 9.204 0 009.206-9.206c0-5.086-4.125-9.206-9.206-9.206zm0 16.5a7.296 7.296 0 01-7.294-7.293 7.296 7.296 0 017.294-7.294 7.296 7.296 0 017.294 7.294 7.296 7.296 0 01-7.294 7.294z"/></svg><svg viewBox="0 0 17 16" id="subscribe" xmlns="http://www.w3.org/2000/svg"><path d="M10.318 14.3a.694.694 0 01-.616-.36l-2.041-3.858a.622.622 0 01.05-.66L11.005 5.2 6.538 8.314a.725.725 0 01-.7.046L1.757 6.432a.646.646 0 01-.379-.618.653.653 0 01.449-.574L14.895.69a.719.719 0 01.724.15c.19.18.252.447.16.685l-4.816 12.35a.684.684 0 01-.607.424l-.038.001z"/></svg><svg viewBox="0 0 58 58" id="sushi" xmlns="http://www.w3.org/2000/svg"><g clip-path="url(#azclip0_49_142)"><path d="M21.678 22.524a.906.906 0 001.245-.301L33.4 5.03l-.737 2.878-7.595 12.464a.906.906 0 101.548.944l4.51-7.404-6.628 25.912a.906.906 0 00.64 1.099l2.674.733a.906.906 0 001.117-.65L38.942 1.865a.906.906 0 00-.634-1.1l-2.68-.733a.896.896 0 00-.508.028.893.893 0 00-1.043.374L21.375 21.278a.907.907 0 00.303 1.246zM35.898 2.58l.008.006-.018.03.01-.036zM27.4 39.664l-.926-.254 7.873-30.79 1.708-2.802L27.4 39.664z"/><path d="M22.422 37.247l-8.29 2.221a.906.906 0 01-1.108-.64L12.32 36.2l12.384-3.318a.905.905 0 00.663-.768.912.912 0 00-.178-.68.906.906 0 00-.954-.323l-.134.036-1.408-5.256 2.918-.781a.907.907 0 00-.47-1.751l-7.202 1.935-.09.025-7.805 2.091a3.63 3.63 0 00-2.564 4.44l.47 1.752a3.619 3.619 0 002.474 2.528l.85 3.172a2.712 2.712 0 003.33 1.922l8.289-2.221a.907.907 0 10-.47-1.75v-.006zm-1.479-10.881l1.408 5.252-1.752.47-1.407-5.257.363-.096 1.388-.369zM9.698 33.132l-.47-1.752a1.813 1.813 0 011.285-2.22l6.93-1.856 1.408 5.256-6.93 1.857a1.812 1.812 0 01-2.223-1.285zM47.125 43.481H27.187a3.625 3.625 0 00-3.625 3.625v1.813a3.612 3.612 0 001.813 3.12v3.253a2.718 2.718 0 002.719 2.718h18.125a2.719 2.719 0 002.718-2.718v-3.253a3.61 3.61 0 001.813-3.12v-1.813a3.625 3.625 0 00-3.625-3.625zm0 11.81a.906.906 0 01-.906.907H28.094a.906.906 0 01-.907-.906v-2.72h19.938v2.72zm1.813-6.372a1.813 1.813 0 01-1.813 1.812h-1.418l1.152-1.152a.906.906 0 00-1.281-1.282l-1.813 1.813a.907.907 0 00-.261.621h-2.328l1.152-1.152a.906.906 0 00-1.281-1.282l-1.813 1.813a.906.906 0 00-.262.621h-2.328l1.153-1.152a.906.906 0 00-1.281-1.282l-1.813 1.813a.907.907 0 00-.262.621h-2.328l1.153-1.152a.906.906 0 00-1.282-1.282l-1.812 1.813a.906.906 0 00-.262.621h-2.328l1.152-1.152a.906.906 0 00-1.281-1.282l-1.707 1.708a1.794 1.794 0 01-.371-1.088v-1.812a1.812 1.812 0 011.813-1.813h19.937a1.812 1.812 0 011.813 1.813v1.814z"/></g><defs><clipPath id="azclip0_49_142"><path d="M0 0h58v58H0z"/></clipPath></defs></svg><svg viewBox="0 0 34 34" id="timer" xmlns="http://www.w3.org/2000/svg"><g clip-path="url(#baclip0_0_379)"><path d="M31.754 12.881l.996-.996c.288-.288.447-.67.447-1.078 0-.407-.159-.79-.447-1.077l-1.14-1.141a1.514 1.514 0 00-1.078-.447c-.407 0-.79.159-1.078.447l-.996.996a12.7 12.7 0 00-4.412-1.933V6.179h.606a1.49 1.49 0 001.488-1.488v-2.07a1.49 1.49 0 00-1.488-1.488H17.8a1.49 1.49 0 00-1.488 1.488v2.07c0 .82.668 1.488 1.488 1.488h.606v1.477a12.703 12.703 0 00-4.392 1.929l-.996-.996a1.514 1.514 0 00-1.078-.447c-.407 0-.79.159-1.078.447l-1.14 1.14a1.526 1.526 0 000 2.156l.176.177H5.19a.664.664 0 000 1.328h5.193a12.713 12.713 0 00-1.215 2.552H.664a.664.664 0 000 1.328H8.79a12.747 12.747 0 00-.314 2.553H4.25a.664.664 0 000 1.328h4.265c.072.879.233 1.733.474 2.552H3.32a.664.664 0 000 1.329h6.142c1.932 4.598 6.482 7.835 11.774 7.835C28.274 32.867 34 27.142 34 20.104c0-2.678-.83-5.167-2.246-7.222zm-1.36-3.353a.192.192 0 01.138-.058c.037 0 .091.01.139.058l1.14 1.14a.193.193 0 01.058.14c0 .037-.01.09-.058.138l-.873.873c-.435-.509-.91-.983-1.418-1.418l.873-.873zM17.64 4.69v-2.07a.16.16 0 01.16-.16h6.852a.16.16 0 01.16.16v2.07a.16.16 0 01-.16.16H17.8a.16.16 0 01-.16-.16zm2.095 1.488h2.983v1.247a12.835 12.835 0 00-2.983.002V6.179zm-9.075 4.49l1.141-1.141a.192.192 0 01.139-.058c.037 0 .091.01.139.058l.873.873c-.51.435-.983.91-1.418 1.418l-.874-.873a.196.196 0 010-.277zm10.576 20.87C14.93 31.54 9.8 26.41 9.8 20.103S14.93 8.667 21.236 8.667s11.436 5.13 11.436 11.436-5.13 11.436-11.436 11.436z"/><path d="M25.619 14.781l-3.14 3.14a2.498 2.498 0 00-1.243-.331 2.517 2.517 0 00-2.514 2.513 2.517 2.517 0 002.514 2.514 2.516 2.516 0 002.514-2.514c0-.452-.121-.877-.331-1.244l3.139-3.139a.664.664 0 00-.94-.939zm-4.383 6.508a1.187 1.187 0 01-1.186-1.186 1.187 1.187 0 012.371 0c0 .654-.531 1.186-1.185 1.186zM21.236 11.494a.669.669 0 00.47-.195.67.67 0 00.194-.47.669.669 0 00-.664-.664.669.669 0 00-.664.664.668.668 0 00.664.665zM21.236 28.713a.669.669 0 00-.47.194.668.668 0 00.47 1.134.666.666 0 00.664-.664.669.669 0 00-.194-.47.669.669 0 00-.47-.194zM14.678 12.882a.67.67 0 00-.47.194.67.67 0 00-.194.47.67.67 0 00.195.47.669.669 0 00.939 0 .67.67 0 00.194-.47.67.67 0 00-.194-.47.669.669 0 00-.47-.194zM27.794 25.997a.67.67 0 00-.47.194.668.668 0 000 .94.67.67 0 00.47.194.669.669 0 00.47-.195.67.67 0 00.194-.47.669.669 0 00-.664-.663zM14.678 25.997a.67.67 0 00-.47.194.669.669 0 00-.194.47.67.67 0 00.195.47.67.67 0 00.47.194.669.669 0 00.469-.195.67.67 0 00.194-.47.67.67 0 00-.194-.469.67.67 0 00-.47-.194zM11.963 19.44a.668.668 0 00-.665.663.667.667 0 00.665.664.666.666 0 00.664-.664.669.669 0 00-.195-.47.669.669 0 00-.47-.194zM30.98 19.634a.667.667 0 00-1.133.47.667.667 0 00.663.663.669.669 0 00.664-.664.67.67 0 00-.195-.47zM.664 23.704a.669.669 0 00-.47.194.67.67 0 00-.194.47.67.67 0 00.195.47.67.67 0 00.47.194.669.669 0 00.468-.195.67.67 0 00.195-.47.67.67 0 00-.195-.47.668.668 0 00-.469-.193z"/><path d="M30.314 18.087a.664.664 0 00.447-.826 9.964 9.964 0 00-6.704-6.689.664.664 0 10-.376 1.274 8.576 8.576 0 015.807 5.794.664.664 0 00.826.447z"/></g><defs><clipPath id="baclip0_0_379"><path d="M0 0h34v34H0z"/></clipPath></defs></svg><svg viewBox="0 0 39 39" id="twitter" xmlns="http://www.w3.org/2000/svg"><circle cx="19.5" cy="19.5" r="19.5"/><path d="M29.526 12.98a8.437 8.437 0 01-2.422.652 4.196 4.196 0 001.85-2.319 8.304 8.304 0 01-2.67 1.017A4.195 4.195 0 0023.212 11a4.205 4.205 0 00-4.206 4.208c0 .326.04.652.104.965a11.954 11.954 0 01-8.673-4.403 4.177 4.177 0 00-.573 2.124c0 1.46.743 2.748 1.875 3.505a4.244 4.244 0 01-1.902-.535v.051a4.207 4.207 0 003.372 4.13 4.456 4.456 0 01-1.107.143c-.274 0-.533-.027-.795-.064a4.214 4.214 0 003.933 2.918 8.43 8.43 0 01-5.223 1.798c-.352 0-.678-.012-1.016-.052a11.911 11.911 0 006.46 1.888c7.736 0 11.97-6.41 11.97-11.972 0-.182 0-.365-.013-.547a9.062 9.062 0 002.11-2.176z"/></svg><svg viewBox="0 0 58 58" id="wok" xmlns="http://www.w3.org/2000/svg"><path d="M48.894 34.626v-3.132a.892.892 0 00-.87-.87h-37.99a.892.892 0 00-.87.87v3.132c0 5.916 3.364 10.788 8.468 13.224h-7.598a.892.892 0 00-.87.87c0 .464.406.87.87.87h37.99c.464 0 .87-.406.87-.87a.892.892 0 00-.87-.87h-7.656c5.162-2.436 8.526-7.308 8.526-13.224zM32.828 47.734h-7.656c-8.294 0-14.268-5.51-14.268-13.108v-2.262h36.25v2.262c0 7.598-6.032 13.108-14.326 13.108zm16.646-35.496c-.174-.174-.406-.232-.638-.232l-37.41.58a.892.892 0 00-.87.87v2.378c0 .464.406.87.87.87l3.19.058c-.058 1.276.232 2.784 1.276 4.292 1.74 2.436.754 4.698.232 5.51h-6.09a.892.892 0 00-.87.87v4.176c0 .464.406.87.87.87h37.99c.464 0 .87-.406.87-.87v-4.176a.892.892 0 00-.87-.87H29.696c.696-1.624.928-4.06-.754-6.496-.754-1.102-.986-2.146-.986-3.074l20.88.348c.232 0 .464-.116.638-.232.174-.174.232-.406.232-.638v-3.538c0-.29-.116-.522-.232-.696zm-34.51 2.726l-2.61-.058v-.638l2.9-.058c-.116.29-.174.522-.29.754zm8.12-.812c.058 0 .058 0 0 0l3.828-.116c-.174.348-.29.696-.406 1.102l-3.944-.058c.232-.522.522-.87.522-.928zm-5.8.058l3.828-.058c-.116.29-.232.58-.348.928l-3.944-.058c.174-.406.406-.696.464-.812zm.058 5.8c-.812-1.16-1.044-2.32-.986-3.248l4.06.058c-.058 1.276.29 2.726 1.276 4.176 1.74 2.436.754 4.698.232 5.51h-3.828c.696-1.624.928-4.06-.754-6.496zm29.812 10.672h-36.25v-2.436h36.25v2.436zm-19.372-4.176h-3.828c.696-1.624.928-4.06-.754-6.496-.812-1.16-1.044-2.262-.986-3.132l4.06.058c-.058 1.276.29 2.668 1.276 4.118 1.682 2.436.696 4.64.232 5.452zm20.184-11.02l-19.604-.29c.232-.58.522-.986.58-1.044.058-.058.058-.116.116-.174l18.966-.29v1.798h-.058zm-25.81 29.058c-3.77 0-5.336-2.842-5.568-4.35-.058-.464.232-.928.696-.986.464-.058.928.232.986.696.058.348.696 3.132 4.176 2.9.464 0 .87.348.928.812 0 .464-.348.87-.812.928h-.406z"/></svg></svg>