<svg width="24" height="24" viewBox="0 0 24 24" fill="none" xmlns="http://www.w3.org/2000/svg">
<path d="M3.63314 8.8202L3.45061 8.64936M3.63314 8.8202L5.14019 3.6911C4.35069 3.71722 3.71674 4.35117 3.69062 5.14068L3.58529 8.32423C3.58128 8.44534 3.53342 8.56089 3.45061 8.64936M3.63314 8.8202L3.45061 8.64936M3.63314 8.8202L3.45061 8.64936M4.58474 8.35729L4.69007 5.17375C4.69878 4.91058 4.91009 4.69926 5.17326 4.69056L8.35681 4.58523C8.72016 4.5732 9.06678 4.42963 9.33221 4.1812L11.6578 2.00457C11.85 1.82464 12.1489 1.82464 12.3411 2.00457L4.58474 8.35729ZM4.58474 8.35729C4.57272 8.72065 4.42914 9.06728 4.18071 9.33271L4.58474 8.35729ZM12.512 1.82202L12.3412 2.00445L12.512 1.82204C12.512 1.82205 12.512 1.82207 12.5121 1.82208L12.512 1.82202ZM20.4136 15.6757L20.1638 15.6674L20.4136 15.6757Z" fill="#363853" stroke="#363853" stroke-width="1.5"/>
<mask id="path-3-inside-1_18_1475" fill="white">
<path fill-rule="evenodd" clip-rule="evenodd" d="M10.1991 6.65463C11.8911 7.82768 13 9.78396 13 12C13 14.216 11.8911 16.1723 10.1991 17.3454C10.6159 17.4464 11.0515 17.5 11.5 17.5C14.5376 17.5 17 15.0376 17 12C17 8.96243 14.5376 6.5 11.5 6.5C11.0515 6.5 10.6159 6.55359 10.1991 6.65463ZM8.79144 6.08962C9.6166 5.7109 10.5344 5.5 11.5 5.5C15.0899 5.5 18 8.41015 18 12C18 15.5899 15.0899 18.5 11.5 18.5C10.5344 18.5 9.6166 18.2891 8.79144 17.9104C8.61384 17.8289 8.5 17.6514 8.5 17.456C8.5 17.2605 8.61384 17.083 8.79144 17.0015C10.686 16.132 12 14.2189 12 12C12 9.78106 10.686 7.86799 8.79144 6.99847C8.61384 6.91695 8.5 6.73945 8.5 6.54404C8.5 6.34863 8.61384 6.17113 8.79144 6.08962Z"/>
</mask>
<path fill-rule="evenodd" clip-rule="evenodd" d="M10.1991 6.65463C11.8911 7.82768 13 9.78396 13 12C13 14.216 11.8911 16.1723 10.1991 17.3454C10.6159 17.4464 11.0515 17.5 11.5 17.5C14.5376 17.5 17 15.0376 17 12C17 8.96243 14.5376 6.5 11.5 6.5C11.0515 6.5 10.6159 6.55359 10.1991 6.65463ZM8.79144 6.08962C9.6166 5.7109 10.5344 5.5 11.5 5.5C15.0899 5.5 18 8.41015 18 12C18 15.5899 15.0899 18.5 11.5 18.5C10.5344 18.5 9.6166 18.2891 8.79144 17.9104C8.61384 17.8289 8.5 17.6514 8.5 17.456C8.5 17.2605 8.61384 17.083 8.79144 17.0015C10.686 16.132 12 14.2189 12 12C12 9.78106 10.686 7.86799 8.79144 6.99847C8.61384 6.91695 8.5 6.73945 8.5 6.54404C8.5 6.34863 8.61384 6.17113 8.79144 6.08962Z" fill="#363853"/>
<path d="M10.1991 6.65463L9.84571 5.19685L6.59897 5.98392L9.34446 7.88735L10.1991 6.65463ZM10.1991 17.3454L9.34444 16.1127L6.59872 18.0164L9.84584 18.8032L10.1991 17.3454ZM8.79144 6.08962L9.41712 7.4529L9.41713 7.45289L8.79144 6.08962ZM8.79144 17.9104L9.41711 16.5471L9.41706 16.5471L8.79144 17.9104ZM8.79144 17.0015L9.41706 18.3648L9.41711 18.3648L8.79144 17.0015ZM8.79144 6.99847L8.1657 8.36172L8.16576 8.36175L8.79144 6.99847ZM9.34446 7.88735C10.6497 8.79226 11.5 10.2967 11.5 12H14.5C14.5 9.27123 13.1325 6.8631 11.0537 5.42191L9.34446 7.88735ZM11.5 12C11.5 13.7033 10.6497 15.2077 9.34444 16.1127L11.0538 18.5781C13.1325 17.1369 14.5 14.7287 14.5 12H11.5ZM9.84584 18.8032C10.3774 18.932 10.9316 19 11.5 19V16C11.1714 16 10.8544 15.9608 10.5524 15.8876L9.84584 18.8032ZM11.5 19C15.366 19 18.5 15.866 18.5 12H15.5C15.5 14.2092 13.7092 16 11.5 16V19ZM18.5 12C18.5 8.13401 15.366 5 11.5 5V8C13.7092 8 15.5 9.79085 15.5 12H18.5ZM11.5 5C10.9316 5 10.3774 5.06797 9.84571 5.19685L10.5525 8.11241C10.8544 8.03922 11.1714 8 11.5 8V5ZM9.41713 7.45289C10.05 7.16244 10.7547 7 11.5 7V4C10.3141 4 9.18322 4.25936 8.16575 4.72635L9.41713 7.45289ZM11.5 7C14.2615 7 16.5 9.23857 16.5 12H19.5C19.5 7.58173 15.9183 4 11.5 4V7ZM16.5 12C16.5 14.7615 14.2615 17 11.5 17V20C15.9183 20 19.5 16.4183 19.5 12H16.5ZM11.5 17C10.7547 17 10.05 16.8376 9.41711 16.5471L8.16577 19.2737C9.18324 19.7406 10.3141 20 11.5 20V17ZM9.41706 16.5471C9.7723 16.7101 10 17.0651 10 17.456H7C7 18.2377 7.45538 18.9477 8.16582 19.2737L9.41706 16.5471ZM10 17.456C10 17.8466 9.77245 18.2017 9.41706 18.3648L8.16582 15.6382C7.45523 15.9643 7 16.6744 7 17.456H10ZM9.41711 18.3648C11.825 17.2597 13.5 14.8263 13.5 12H10.5C10.5 13.6115 9.54701 15.0043 8.16577 15.6382L9.41711 18.3648ZM13.5 12C13.5 9.17368 11.825 6.7403 9.41712 5.63519L8.16576 8.36175C9.54701 8.99568 10.5 10.3884 10.5 12H13.5ZM9.41718 5.63522C9.7723 5.79822 10 6.15318 10 6.54404H7C7 7.32572 7.45538 8.03568 8.1657 8.36172L9.41718 5.63522ZM10 6.54404C10 6.93488 9.77231 7.28988 9.41712 7.4529L8.16576 4.72634C7.45537 5.05238 7 5.76238 7 6.54404H10Z" fill="#363853" mask="url(#path-3-inside-1_18_1475)"/>
<rect width="24" height="24" stroke="black"/>
</svg>
