<svg width="45" height="45" viewBox="0 0 45 45" fill="none" xmlns="http://www.w3.org/2000/svg">
<path d="M22.5 0C10.1035 0 0 10.1035 0 22.5C0 34.8965 10.1035 45 22.5 45C34.8965 45 45 34.8965 45 22.5C45 10.1035 34.8965 0 22.5 0ZM22.5 2.14968C33.75 2.14968 42.8503 11.25 42.8503 22.5C42.8503 24.2197 42.6353 25.8678 42.2054 27.4443C39.1959 29.2357 35.9713 27.2293 35.828 27.1576C35.4697 26.9427 35.1115 26.9427 34.7532 27.086C34.3949 27.301 34.1799 27.6592 34.1799 28.0175V31.672C34.1799 32.5318 33.4634 33.2484 32.5318 33.2484C31.6003 33.2484 30.8838 32.5318 30.8838 31.672V22.2134C30.8838 22.1417 30.8838 22.0701 30.8838 21.9984C30.5971 17.6274 26.9427 14.1162 22.5 14.1162C18.0573 14.1162 14.4029 17.6274 14.1162 21.9984C14.1162 22.0701 14.1162 22.1417 14.1162 22.2134V31.7436C14.1162 32.6035 13.3997 33.3201 12.4682 33.3201C11.5366 33.3201 10.8201 32.6035 10.8201 31.7436V28.0892C10.8201 27.7309 10.6051 27.301 10.2468 27.1576C9.88854 26.9427 9.4586 27.0143 9.17197 27.2293C9.17197 27.2293 5.8758 29.3073 2.86624 27.5876C2.43631 26.0111 2.22134 24.2914 2.22134 22.6433C2.14968 11.25 11.25 2.14968 22.5 2.14968ZM22.5 16.2659C25.9395 16.2659 28.8057 19.0605 28.8057 22.5717C28.8057 26.0828 26.0111 28.8774 22.5 28.8774C18.9889 28.8774 16.1943 26.0828 16.1943 22.5717C16.1943 19.0605 19.0605 16.2659 22.5 16.2659ZM22.5 42.8503C13.9729 42.8503 6.66401 37.5478 3.65446 30.0955C5.58917 30.5971 7.38057 30.1672 8.59873 29.7373V31.672C8.59873 33.6783 10.3185 35.3981 12.3965 35.3981C14.4745 35.3981 16.1943 33.75 16.1943 31.672V28.0892C17.7707 29.8089 19.992 30.8838 22.5 30.8838C25.008 30.8838 27.2293 29.8089 28.8057 28.0892V31.672C28.8057 33.6783 30.5255 35.3981 32.6035 35.3981C34.6815 35.3981 36.4013 33.75 36.4013 31.672V29.7373C37.6194 30.1672 39.4825 30.5971 41.4172 30.0955C38.336 37.6194 31.0271 42.8503 22.5 42.8503ZM6.95064 23.0016C6.66401 23.0016 6.37739 22.9299 6.16242 22.715C5.73248 22.285 5.73248 21.6401 6.16242 21.2102L8.59873 18.7739C9.02866 18.3439 9.67357 18.3439 10.1035 18.7739C10.5334 19.2038 10.5334 19.8487 10.1035 20.2787L7.6672 22.715C7.52388 22.8583 7.23726 23.0016 6.95064 23.0016ZM11.9666 12.2532C11.6799 12.2532 11.3933 12.1815 11.1783 11.9666C10.7484 11.5366 10.7484 10.8917 11.1783 10.4618L13.6146 8.02548C14.0446 7.59554 14.6895 7.59554 15.1194 8.02548C15.5494 8.45541 15.5494 9.10032 15.1194 9.53025L12.6831 11.9666C12.5398 12.1099 12.2532 12.2532 11.9666 12.2532ZM29.8806 12.2532C29.5939 12.2532 29.3073 12.1815 29.0924 11.9666C28.6624 11.5366 28.6624 10.8917 29.0924 10.4618L31.5287 8.02548C31.9586 7.59554 32.6035 7.59554 33.0334 8.02548C33.4634 8.45541 33.4634 9.10032 33.0334 9.53025L30.5971 11.9666C30.4538 12.1099 30.1672 12.2532 29.8806 12.2532ZM35.6131 23.0016C35.3264 23.0016 35.0398 22.9299 34.8248 22.715C34.3949 22.285 34.3949 21.6401 34.8248 21.2102L37.2611 18.7739C37.6911 18.3439 38.336 18.3439 38.7659 18.7739C39.1959 19.2038 39.1959 19.8487 38.7659 20.2787L36.3296 22.715C36.1863 22.8583 35.8997 23.0016 35.6131 23.0016Z" fill="black"/>
</svg>
