<svg width="58" height="58" viewBox="0 0 58 58" fill="none" xmlns="http://www.w3.org/2000/svg">
<path d="M29.9275 12.4701C30.2175 11.8901 30.7395 11.1941 31.4355 11.3101C31.8995 11.3681 32.3635 11.0781 32.4795 10.6141C32.5955 10.1501 32.2475 9.68609 31.7835 9.57009C29.7535 9.16409 28.5935 10.9621 28.0715 12.2961C26.3315 12.5861 24.9975 14.1521 24.9975 15.9501C24.9975 17.9801 26.6795 19.6621 28.7095 19.6621C30.7395 19.6621 32.4215 17.9801 32.4215 15.9501C32.4795 14.3841 31.3775 12.9921 29.9275 12.4701ZM28.7675 17.9801C27.6655 17.9801 26.7955 17.1101 26.7955 16.0081C26.7955 14.9061 27.6655 14.0361 28.7675 14.0361C29.8695 14.0361 30.7395 14.9061 30.7395 16.0081C30.7395 17.1101 29.8115 17.9801 28.7675 17.9801ZM50.6915 44.6601H48.0235V34.6261C48.0235 31.6681 45.5875 29.2321 42.6295 29.2321H15.3695C12.4115 29.2321 9.9755 31.6681 9.9755 34.6261V44.6601H7.3075C6.8435 44.6601 6.4375 45.0661 6.4375 45.5301C6.4375 45.9941 6.8435 46.4001 7.3075 46.4001H10.8455H47.0955H50.6335C51.0975 46.4001 51.5035 45.9941 51.5035 45.5301C51.5035 45.0661 51.1555 44.6601 50.6915 44.6601ZM15.3695 30.9721H42.5715C44.6015 30.9721 46.2255 32.5961 46.2255 34.6261V37.6421C44.8915 38.1641 41.0055 39.4401 37.6995 37.4681C32.0155 34.0461 26.0995 34.0461 20.1835 37.4681C16.2395 39.8461 12.8175 38.3381 11.7155 37.7001V34.5681C11.7735 32.5961 13.3975 30.9721 15.3695 30.9721ZM11.7735 44.6601V39.6721C12.7595 40.0781 14.1515 40.5421 15.8335 40.5421C17.3995 40.5421 19.2555 40.1361 21.1115 39.0341C26.4475 35.9601 31.7255 35.9601 36.8295 39.0341C40.3675 41.1801 44.3115 40.3101 46.2255 39.6141V44.6601H11.7735ZM35.8435 18.3861H22.1555C19.8355 18.3861 17.9795 20.2421 17.9795 22.5621V24.3021V30.1601C17.9795 30.6241 18.3855 31.0301 18.8495 31.0301H39.0915C39.5555 31.0301 39.9615 30.6241 39.9615 30.1601V22.5041C39.9615 20.2421 38.1055 18.3861 35.8435 18.3861ZM22.1555 20.1261H35.7855C37.1195 20.1261 38.2215 21.2281 38.2215 22.5621V22.8521C36.9455 22.3881 35.2055 22.3301 33.4655 23.6061C31.4355 25.1141 29.5795 23.6641 29.5215 23.6641C29.4055 23.5481 26.7955 21.3441 23.0255 23.5481C21.0535 24.7081 20.0675 24.2441 19.7195 23.9541V22.5621C19.7775 21.1701 20.8215 20.1261 22.1555 20.1261ZM19.7775 29.2321V25.8101C20.7635 26.1001 22.2135 26.0421 23.9535 24.9981C26.6215 23.4321 28.3615 24.8241 28.4775 24.9401C29.0575 25.4041 30.2175 25.9841 31.5515 25.9841C32.4795 25.9841 33.5235 25.6941 34.5675 24.9401C36.1335 23.7801 37.6415 24.3601 38.2795 24.7081V29.2321H19.7775Z" fill="black"/>
</svg>
