<svg width="32" height="58" viewBox="0 0 32 58" fill="none" xmlns="http://www.w3.org/2000/svg">
<g clip-path="url(#clip0_16_1423)">
<path d="M31.1961 14.3135H30.046V12.3028C30.046 12.0895 29.9613 11.8851 29.8106 11.7343C29.6598 11.5835 29.4554 11.4988 29.2421 11.4988H19.4903V5.44017L23.1297 1.93132C23.1617 1.90107 23.1873 1.86473 23.2051 1.82444C23.2229 1.78415 23.2325 1.74071 23.2333 1.69667C23.2341 1.65262 23.2261 1.60887 23.2097 1.56796C23.1934 1.52705 23.1691 1.48981 23.1382 1.45843L21.8254 0.101236C21.7643 0.0381146 21.6807 0.00173693 21.5928 3.74066e-05C21.5492 -0.000620412 21.506 0.00740379 21.4655 0.0236419C21.4251 0.0398801 21.3883 0.0640071 21.3573 0.0946155L17.6158 3.69993C17.5841 3.73101 17.5588 3.76795 17.5411 3.8087L16.9623 5.16967C16.9451 5.21073 16.9361 5.25474 16.9358 5.29925V11.4988H2.75785C2.54465 11.4988 2.34017 11.5835 2.18941 11.7343C2.03865 11.8851 1.95395 12.0895 1.95395 12.3028V14.3135H0.803901C0.59077 14.3137 0.38644 14.3985 0.235734 14.5492C0.0850272 14.6999 0.000250301 14.9043 0 15.1174L0 20.3192C0 20.5324 0.0846965 20.7369 0.235457 20.8876C0.386218 21.0384 0.590693 21.1231 0.803901 21.1231H1.91707L5.28021 57.2708C5.29882 57.4702 5.39115 57.6554 5.53914 57.7903C5.68712 57.9252 5.88011 58 6.08033 58H25.9197C26.1199 58 26.3129 57.9252 26.4609 57.7903C26.6088 57.6554 26.7012 57.4702 26.7198 57.2708L30.0829 21.1193H31.1961C31.4093 21.1193 31.6138 21.0346 31.7645 20.8839C31.9153 20.7331 32 20.5286 32 20.3154V15.1136C31.9988 14.9011 31.9135 14.6978 31.7629 14.5479C31.6123 14.398 31.4086 14.3137 31.1961 14.3135V14.3135ZM17.5979 5.36734L18.1237 4.13026L21.5786 0.799222L22.4298 1.68447L18.9305 5.06091C18.8985 5.09132 18.873 5.12784 18.8555 5.16829C18.8379 5.20875 18.8287 5.25231 18.8283 5.29641V11.496H17.5988L17.5979 5.36734ZM3.56176 13.1067H28.4354V14.3135H3.56176V13.1067ZM26.8957 38.0204C21.362 38.3221 18.8661 41.848 16.4497 45.2642C14.0087 48.7144 11.6935 51.9792 6.42932 52.2724L5.3956 41.1538C10.9974 40.8341 14.0342 37.3064 16.9746 33.8902C19.915 30.474 22.7173 27.2234 27.9294 26.9084L26.8957 38.0204ZM25.1867 56.3922H6.80952L6.48796 52.9325C12.0576 52.6119 14.562 49.0728 16.986 45.65C19.3996 42.2386 21.6883 39.0097 26.8295 38.6929L25.1867 56.3922ZM27.9947 26.2398C22.4317 26.5405 19.4062 30.0551 16.4762 33.4589C13.4932 36.9233 10.6673 40.2014 5.33696 40.4917L3.53149 21.1193H28.4676L27.9947 26.2398ZM30.395 19.5115H1.6078V15.9175H30.3922L30.395 19.5115Z" fill="black"/>
</g>
<defs>
<clipPath id="clip0_16_1423">
<rect width="32" height="58" fill="white"/>
</clipPath>
</defs>
</svg>
