<svg width="58" height="58" viewBox="0 0 58 58" fill="none" xmlns="http://www.w3.org/2000/svg">
<path d="M17.0518 34.5684C10.4978 34.5684 5.50977 32.1904 5.50977 29.0584C5.50977 25.9264 10.4978 23.5484 17.0518 23.5484C23.6638 23.5484 28.5938 25.9264 28.5938 29.0584C28.5938 32.1904 23.6058 34.5684 17.0518 34.5684ZM17.0518 25.2884C11.4258 25.2884 7.24977 27.2604 7.24977 29.0584C7.24977 30.8564 11.4258 32.8284 17.0518 32.8284C22.8518 32.8284 26.8538 30.8564 26.8538 29.0584C26.8538 27.2604 22.6198 25.2884 17.0518 25.2884ZM17.0518 32.0164C13.9778 32.0164 10.6718 31.0884 10.6718 29.0004C10.6718 26.9124 13.9778 25.9844 17.0518 25.9844C20.1258 25.9844 23.4318 26.9124 23.4318 29.0004C23.4318 31.0884 20.1258 32.0164 17.0518 32.0164ZM17.0518 27.7824C14.1518 27.7824 12.5278 28.6524 12.4118 29.0584C12.4698 29.4064 14.1518 30.3344 17.0518 30.3344C19.9518 30.3344 21.5758 29.4644 21.6918 29.0584C21.5758 28.6524 19.8938 27.7824 17.0518 27.7824ZM16.6458 48.0244C12.7018 48.0244 9.97577 47.2704 8.29377 46.6904C6.61177 46.0524 5.50977 44.4284 5.50977 42.6304V29.0584C5.50977 28.5944 5.91577 28.1884 6.37977 28.1884C6.84377 28.1884 7.24977 28.5944 7.24977 29.0584C7.24977 30.8564 11.4258 32.8284 17.0518 32.8284C22.8518 32.8284 26.8538 30.8564 26.8538 29.0584C26.8538 28.5944 27.2598 28.1884 27.7238 28.1884C28.1878 28.1884 28.5938 28.5944 28.5938 29.0584V42.5144C28.5938 44.3704 27.4338 45.9944 25.6938 46.5744C23.7798 47.2124 20.7058 48.0244 16.6458 48.0244ZM7.24977 32.0164V42.5724C7.24977 43.6164 7.94577 44.6024 8.93177 45.0084C10.4398 45.5884 12.9918 46.2264 16.6458 46.2264C20.4738 46.2264 23.3738 45.4724 25.1138 44.8924C26.1578 44.5444 26.8538 43.5584 26.8538 42.4564V32.0164C24.8238 33.5824 21.2858 34.5104 17.0518 34.5104C12.8178 34.5684 9.22177 33.5824 7.24977 32.0164ZM21.6338 42.1084V33.4084C21.6338 32.9444 21.2278 32.5384 20.7638 32.5384C20.2998 32.5384 19.8938 32.9444 19.8938 33.4084V42.1664C19.8938 42.6304 20.2998 43.0364 20.7638 43.0364C21.2278 43.0364 21.6338 42.6304 21.6338 42.1084ZM41.2378 24.4184C34.6838 24.4184 29.6958 22.0404 29.6958 18.9084C29.6958 15.7764 34.6838 13.3984 41.2378 13.3984C47.8498 13.3984 52.7798 15.7764 52.7798 18.9084C52.7798 22.0404 47.8498 24.4184 41.2378 24.4184ZM41.2378 15.1384C35.6118 15.1384 31.4358 17.1104 31.4358 18.9084C31.4358 20.7064 35.6118 22.6784 41.2378 22.6784C47.0378 22.6784 51.0398 20.7064 51.0398 18.9084C51.0398 17.1104 46.8638 15.1384 41.2378 15.1384ZM41.2378 21.8664C38.1638 21.8664 34.8578 20.9384 34.8578 18.8504C34.8578 16.7624 38.1638 15.8344 41.2378 15.8344C44.3118 15.8344 47.6178 16.7624 47.6178 18.8504C47.6178 20.9384 44.3118 21.8664 41.2378 21.8664ZM41.2378 17.6324C38.3378 17.6324 36.7138 18.5024 36.5978 18.9084C36.6558 19.2564 38.3378 20.1844 41.2378 20.1844C44.1378 20.1844 45.7618 19.3144 45.8778 18.9084C45.7618 18.5024 44.1378 17.6324 41.2378 17.6324ZM40.8318 37.8744C36.8878 37.8744 34.1618 37.1204 32.4798 36.5404C30.7978 35.9024 29.6958 34.2784 29.6958 32.4804V18.9084C29.6958 18.4444 30.1018 18.0384 30.5658 18.0384C31.0298 18.0384 31.4358 18.4444 31.4358 18.9084C31.4358 20.7064 35.6118 22.6784 41.2378 22.6784C47.0378 22.6784 51.0398 20.7064 51.0398 18.9084C51.0398 18.4444 51.4458 18.0384 51.9098 18.0384C52.3738 18.0384 52.7798 18.4444 52.7798 18.9084V32.3644C52.7798 34.2204 51.6198 35.8444 49.8798 36.4244C48.0238 37.0624 44.8918 37.8744 40.8318 37.8744ZM31.4358 21.8664V32.4804C31.4358 33.5244 32.1318 34.5104 33.1178 34.9164C34.6258 35.4964 37.1778 36.1344 40.8318 36.1344C44.6598 36.1344 47.5598 35.3804 49.2998 34.8004C50.3438 34.4524 51.0398 33.4664 51.0398 32.3644V21.9244C49.0098 23.4904 45.4718 24.4184 41.2378 24.4184C37.0038 24.4184 33.4658 23.4324 31.4358 21.8664ZM45.8778 31.9584V23.2584C45.8778 22.7944 45.4718 22.3884 45.0078 22.3884C44.5438 22.3884 44.1378 22.7944 44.1378 23.2584V32.0164C44.1378 32.4804 44.5438 32.8864 45.0078 32.8864C45.4718 32.8864 45.8778 32.4804 45.8778 31.9584Z" fill="#231F20"/>
</svg>
