<svg width="24" height="24" viewBox="0 0 24 24" fill="none" xmlns="http://www.w3.org/2000/svg">
<path d="M14.282 0.510742C9.19609 0.510742 5.07578 4.63106 5.07578 9.71699C5.07578 11.9154 5.84453 13.9311 7.12891 15.5154L0.800781 21.8436C0.425781 22.2186 0.425781 22.8232 0.800781 23.1982C1.17578 23.5732 1.78047 23.5732 2.15547 23.1982L8.48359 16.8701C10.068 18.1545 12.0836 18.9232 14.282 18.9232C19.368 18.9232 23.4883 14.8029 23.4883 9.71699C23.4883 4.63106 19.3633 0.510742 14.282 0.510742V0.510742ZM14.282 17.0107C10.2555 17.0107 6.98828 13.7436 6.98828 9.71699C6.98828 5.69043 10.2555 2.42324 14.282 2.42324C18.3086 2.42324 21.5758 5.69043 21.5758 9.71699C21.5758 13.7436 18.3086 17.0107 14.282 17.0107V17.0107Z" fill="black"/>
</svg>
