<svg width="59" height="24" viewBox="0 0 59 24" fill="none" xmlns="http://www.w3.org/2000/svg">
<path d="M58 13.6062C58 13.6062 54.1875 16.3371 54.1491 16.3294C54.2105 16.364 56.2433 19.7201 53.9267 22.7501C53.9267 22.7501 53.8423 18.1475 45.3197 13.4221C45.3197 13.4221 41.7718 13.3262 40.2299 13.0347C33.5062 11.7651 20.7415 10.2578 9.53025 14.0856C7.34015 14.8336 5.0465 13.9821 3.36653 12.3827C2.64161 11.6923 2.02793 10.8599 1.59067 9.9586C1.54465 9.86271 1.49862 9.76298 1.45643 9.6671C1.14575 8.95752 1 8.22493 1 7.50385C1 5.16033 2.54572 2.9664 4.97362 2.31436C6.45798 1.91546 8.37191 1.56643 10.8305 1.33246C22.1645 0.254674 39.2212 1.29794 46.34 12.0681L58 13.6062V13.6062Z" stroke="#231F20" stroke-width="2" stroke-miterlimit="10" stroke-linecap="round" stroke-linejoin="round"/>
<path d="M10.0215 5.35938L11.7015 8.79602" stroke="#231F20" stroke-width="2" stroke-miterlimit="10" stroke-linecap="round" stroke-linejoin="round"/>
<path d="M17.6152 4.46289L19.2952 7.8957" stroke="#231F20" stroke-width="2" stroke-miterlimit="10" stroke-linecap="round" stroke-linejoin="round"/>
<path d="M25.502 5.1377L26.5951 7.37382" stroke="#231F20" stroke-width="2" stroke-miterlimit="10" stroke-linecap="round" stroke-linejoin="round"/>
<path d="M40.2302 13.031C40.2111 17.7948 36.3448 21.6495 31.5772 21.6495H12.0006C9.6111 21.6495 7.44785 20.6791 5.88295 19.1142C4.31805 17.5493 3.34766 15.386 3.34766 12.9927C3.34766 12.7855 3.35533 12.5823 3.37067 12.3751C5.05064 13.9746 7.34046 14.826 9.53439 14.0781C20.7418 10.2541 33.5065 11.7614 40.2302 13.031V13.031Z" stroke="#231F20" stroke-width="2" stroke-miterlimit="10" stroke-linecap="round" stroke-linejoin="round"/>
<path d="M54.1447 16.3292L52.9863 15.5391" stroke="#231F20" stroke-width="2" stroke-miterlimit="10" stroke-linecap="round" stroke-linejoin="round"/>
</svg>
