<svg width="58" height="58" viewBox="0 0 58 58" fill="none" xmlns="http://www.w3.org/2000/svg">
<g clip-path="url(#clip0_49_142)">
<path d="M21.6781 22.5243C21.8832 22.6494 22.1296 22.6878 22.3631 22.6312C22.5966 22.5746 22.7981 22.4276 22.9233 22.2226L33.3995 5.03009L32.6627 7.90834L25.0684 20.372C24.9431 20.5773 24.9046 20.8239 24.9612 21.0575C25.0178 21.2912 25.1649 21.4929 25.3701 21.6181C25.5754 21.7433 25.822 21.7819 26.0557 21.7253C26.2894 21.6687 26.491 21.5216 26.6162 21.3163L31.1266 13.9122L24.4983 39.8237C24.4392 40.0542 24.4731 40.2986 24.5926 40.5042C24.7122 40.7099 24.9078 40.8603 25.1372 40.923L27.8116 41.6562C27.8896 41.677 27.97 41.6877 28.0508 41.6879C28.2521 41.688 28.4477 41.621 28.6067 41.4976C28.7657 41.3742 28.8791 41.2014 28.929 41.0064L38.9421 1.86456C39.0014 1.63476 38.9681 1.39088 38.8495 1.18533C38.7309 0.979778 38.5364 0.82896 38.3078 0.765279L35.6289 0.0321231C35.46 -0.00803918 35.283 0.00172072 35.1196 0.0602168C34.929 -0.00404485 34.7222 -0.00204627 34.5329 0.0658886C34.3436 0.133823 34.1827 0.263712 34.0765 0.434498L21.3745 21.2782C21.3125 21.38 21.2712 21.4929 21.2529 21.6106C21.2346 21.7283 21.2397 21.8485 21.2679 21.9642C21.2961 22.08 21.3469 22.189 21.4173 22.2851C21.4876 22.3812 21.5763 22.4625 21.6781 22.5243ZM35.8971 2.57959L35.9062 2.58594L35.8881 2.61584L35.8971 2.57959ZM27.401 39.6642L26.4749 39.4096L34.3484 8.61975L36.0557 5.81762L27.401 39.6642Z" fill="black"/>
<path d="M22.4224 37.2473L14.1329 39.4685C13.9009 39.5305 13.6537 39.4979 13.4457 39.3778C13.2377 39.2576 13.0859 39.0598 13.0237 38.8278L12.3195 36.1997L24.7043 32.8819C24.8787 32.8346 25.0349 32.7362 25.1529 32.5994C25.271 32.4627 25.3455 32.2937 25.3668 32.1143C25.3839 31.9933 25.3765 31.87 25.345 31.7518C25.3142 31.6369 25.2611 31.5291 25.1886 31.4347C25.1161 31.3402 25.0258 31.261 24.9227 31.2015C24.8196 31.142 24.7058 31.1034 24.5878 31.0879C24.4698 31.0724 24.3498 31.0803 24.2349 31.1111L24.1008 31.1474L22.6933 25.8911L25.6106 25.1099C25.7255 25.0791 25.8333 25.0259 25.9277 24.9535C26.0221 24.881 26.1014 24.7906 26.1608 24.6875C26.2203 24.5845 26.259 24.4707 26.2745 24.3526C26.29 24.2346 26.2821 24.1147 26.2513 23.9998C26.2205 23.8848 26.1673 23.777 26.0948 23.6826C26.0224 23.5882 25.932 23.509 25.8289 23.4495C25.7258 23.39 25.612 23.3514 25.494 23.3359C25.376 23.3203 25.2561 23.3282 25.1411 23.359L17.9392 25.2939L17.8485 25.3193L10.0439 27.41C9.11563 27.6598 8.32434 28.2676 7.84369 29.1001C7.36304 29.9326 7.23229 30.9218 7.48013 31.8506L7.94957 33.6015C8.11117 34.1995 8.42361 34.7461 8.85696 35.1888C9.29031 35.6315 9.83007 35.9556 10.4245 36.1299L11.2737 39.3018C11.3653 39.6471 11.5242 39.9709 11.7413 40.2546C11.9585 40.5384 12.2295 40.7764 12.5389 40.955C12.8483 41.1336 13.19 41.2493 13.5442 41.2955C13.8985 41.3416 14.2584 41.3173 14.6033 41.2239L22.8927 39.0027C23.0105 38.9745 23.1214 38.923 23.2189 38.8513C23.3164 38.7795 23.3985 38.6889 23.4604 38.5849C23.5223 38.4808 23.5628 38.3654 23.5793 38.2455C23.5959 38.1256 23.5883 38.0035 23.5569 37.8866C23.5256 37.7697 23.4711 37.6602 23.3967 37.5647C23.3223 37.4691 23.2296 37.3895 23.1239 37.3304C23.0182 37.2713 22.9018 37.234 22.7814 37.2207C22.6611 37.2073 22.5393 37.2182 22.4233 37.2528L22.4224 37.2473ZM20.9434 26.366L22.3508 31.6177L20.599 32.0871L19.1925 26.8309L19.555 26.7348L20.9434 26.366ZM9.69772 33.132L9.22829 31.3803C9.16681 31.1502 9.15129 30.9102 9.18261 30.6741C9.21393 30.438 9.29148 30.2103 9.41083 30.0042C9.53017 29.7981 9.68897 29.6175 9.87815 29.4728C10.0673 29.3281 10.2832 29.2221 10.5133 29.1609L17.4434 27.304L18.8508 32.5602L11.9208 34.4171C11.6904 34.4791 11.4501 34.4951 11.2136 34.464C10.977 34.4329 10.749 34.3555 10.5424 34.2361C10.3359 34.1167 10.155 33.9577 10.01 33.7683C9.86507 33.5788 9.75894 33.3626 9.69772 33.132Z" fill="black"/>
<path d="M47.125 43.4814H27.1875C26.2261 43.4814 25.3041 43.8634 24.6242 44.5432C23.9444 45.223 23.5625 46.145 23.5625 47.1064V48.9189C23.5645 49.5523 23.733 50.174 24.0511 50.7217C24.3692 51.2693 24.8258 51.7237 25.375 52.0392V55.2917C25.375 56.0128 25.6614 56.7043 26.1713 57.2141C26.6812 57.724 27.3727 58.0104 28.0938 58.0104H46.2188C46.9398 58.0104 47.6313 57.724 48.1412 57.2141C48.6511 56.7043 48.9375 56.0128 48.9375 55.2917V52.0392C49.4868 51.7238 49.9434 51.2694 50.2615 50.7217C50.5796 50.174 50.7481 49.5523 50.75 48.9189V47.1064C50.75 46.145 50.3681 45.223 49.6883 44.5432C49.0084 43.8634 48.0864 43.4814 47.125 43.4814ZM47.125 55.2917C47.125 55.532 47.0295 55.7626 46.8596 55.9325C46.6896 56.1025 46.4591 56.1979 46.2188 56.1979H28.0938C27.8534 56.1979 27.6229 56.1025 27.4529 55.9325C27.283 55.7626 27.1875 55.532 27.1875 55.2917V52.5729H47.125V55.2917ZM48.9375 48.9189C48.9375 49.3997 48.7465 49.8607 48.4066 50.2006C48.0667 50.5405 47.6057 50.7314 47.125 50.7314H45.7067L46.8595 49.5787C47.0246 49.4078 47.1159 49.1789 47.1138 48.9412C47.1118 48.7036 47.0165 48.4763 46.8484 48.3083C46.6804 48.1403 46.4531 48.045 46.2155 48.0429C45.9779 48.0408 45.749 48.1322 45.578 48.2973L43.7655 50.1098C43.6015 50.2756 43.5077 50.4982 43.5036 50.7314H41.1755L42.3282 49.5787C42.4933 49.4078 42.5846 49.1789 42.5826 48.9412C42.5805 48.7036 42.4852 48.4763 42.3172 48.3083C42.1492 48.1403 41.9219 48.045 41.6842 48.0429C41.4466 48.0408 41.2177 48.1322 41.0468 48.2973L39.2343 50.1098C39.0702 50.2756 38.9764 50.4982 38.9724 50.7314H36.6442L37.797 49.5787C37.9621 49.4078 38.0534 49.1789 38.0513 48.9412C38.0493 48.7036 37.954 48.4763 37.7859 48.3083C37.6179 48.1403 37.3906 48.045 37.153 48.0429C36.9154 48.0408 36.6865 48.1322 36.5155 48.2973L34.703 50.1098C34.539 50.2756 34.4452 50.4982 34.4411 50.7314H32.113L33.2657 49.5787C33.4308 49.4078 33.5221 49.1789 33.5201 48.9412C33.518 48.7036 33.4227 48.4763 33.2547 48.3083C33.0867 48.1403 32.8594 48.045 32.6217 48.0429C32.3841 48.0408 32.1552 48.1322 31.9843 48.2973L30.1718 50.1098C30.0077 50.2756 29.9139 50.4982 29.9099 50.7314H27.5817L28.7345 49.5787C28.8996 49.4078 28.9909 49.1789 28.9888 48.9412C28.9868 48.7036 28.8915 48.4763 28.7234 48.3083C28.5554 48.1403 28.3281 48.045 28.0905 48.0429C27.8529 48.0408 27.624 48.1322 27.453 48.2973L25.7457 50.0046C25.5063 49.6926 25.376 49.3105 25.375 48.9171V47.1046C25.375 46.6239 25.566 46.1629 25.9059 45.823C26.2458 45.4831 26.7068 45.2921 27.1875 45.2921H47.125C47.6057 45.2921 48.0667 45.4831 48.4066 45.823C48.7465 46.1629 48.9375 46.6239 48.9375 47.1046V48.9189Z" fill="black"/>
</g>
<defs>
<clipPath id="clip0_49_142">
<rect width="58" height="58" fill="white"/>
</clipPath>
</defs>
</svg>
