<svg width="58" height="58" viewBox="0 0 58 58" fill="none" xmlns="http://www.w3.org/2000/svg">
<path d="M48.8941 34.6259V31.4939C48.8941 31.0299 48.4881 30.6239 48.0241 30.6239H10.0341C9.57006 30.6239 9.16406 31.0299 9.16406 31.4939V34.6259C9.16406 40.5419 12.5281 45.4139 17.6321 47.8499H10.0341C9.57006 47.8499 9.16406 48.2559 9.16406 48.7199C9.16406 49.1839 9.57006 49.5899 10.0341 49.5899H48.0241C48.4881 49.5899 48.8941 49.1839 48.8941 48.7199C48.8941 48.2559 48.4881 47.8499 48.0241 47.8499H40.3681C45.5301 45.4139 48.8941 40.5419 48.8941 34.6259ZM32.8281 47.7339H25.1721C16.8781 47.7339 10.9041 42.2239 10.9041 34.6259V32.3639H47.1541V34.6259C47.1541 42.2239 41.1221 47.7339 32.8281 47.7339ZM49.4741 12.2379C49.3001 12.0639 49.0681 12.0059 48.8361 12.0059L11.4261 12.5859C10.9621 12.5859 10.5561 12.9919 10.5561 13.4559V15.8339C10.5561 16.2979 10.9621 16.7039 11.4261 16.7039L14.6161 16.7619C14.5581 18.0379 14.8481 19.5459 15.8921 21.0539C17.6321 23.4899 16.6461 25.7519 16.1241 26.5639H10.0341C9.57006 26.5639 9.16406 26.9699 9.16406 27.4339V31.6099C9.16406 32.0739 9.57006 32.4799 10.0341 32.4799H48.0241C48.4881 32.4799 48.8941 32.0739 48.8941 31.6099V27.4339C48.8941 26.9699 48.4881 26.5639 48.0241 26.5639H29.6961C30.3921 24.9399 30.6241 22.5039 28.9421 20.0679C28.1881 18.9659 27.9561 17.9219 27.9561 16.9939L48.8361 17.3419C49.0681 17.3419 49.3001 17.2259 49.4741 17.1099C49.6481 16.9359 49.7061 16.7039 49.7061 16.4719V12.9339C49.7061 12.6439 49.5901 12.4119 49.4741 12.2379ZM14.9641 14.9639L12.3541 14.9059V14.2679L15.2541 14.2099C15.1381 14.4999 15.0801 14.7319 14.9641 14.9639ZM23.0841 14.1519C23.1421 14.1519 23.1421 14.1519 23.0841 14.1519L26.9121 14.0359C26.7381 14.3839 26.6221 14.7319 26.5061 15.1379L22.5621 15.0799C22.7941 14.5579 23.0841 14.2099 23.0841 14.1519ZM17.2841 14.2099L21.1121 14.1519C20.9961 14.4419 20.8801 14.7319 20.7641 15.0799L16.8201 15.0219C16.9941 14.6159 17.2261 14.3259 17.2841 14.2099ZM17.3421 20.0099C16.5301 18.8499 16.2981 17.6899 16.3561 16.7619L20.4161 16.8199C20.3581 18.0959 20.7061 19.5459 21.6921 20.9959C23.4321 23.4319 22.4461 25.6939 21.9241 26.5059H18.0961C18.7921 24.8819 19.0241 22.4459 17.3421 20.0099ZM47.1541 30.6819H10.9041V28.2459H47.1541V30.6819ZM27.7821 26.5059H23.9541C24.6501 24.8819 24.8821 22.4459 23.2001 20.0099C22.3881 18.8499 22.1561 17.7479 22.2141 16.8779L26.2741 16.9359C26.2161 18.2119 26.5641 19.6039 27.5501 21.0539C29.2321 23.4899 28.2461 25.6939 27.7821 26.5059ZM47.9661 15.4859L28.3621 15.1959C28.5941 14.6159 28.8841 14.2099 28.9421 14.1519C29.0001 14.0939 29.0001 14.0359 29.0581 13.9779L48.0241 13.6879V15.4859H47.9661ZM22.1561 44.5439C18.3861 44.5439 16.8201 41.7019 16.5881 40.1939C16.5301 39.7299 16.8201 39.2659 17.2841 39.2079C17.7481 39.1499 18.2121 39.4399 18.2701 39.9039C18.3281 40.2519 18.9661 43.0359 22.4461 42.8039C22.9101 42.8039 23.3161 43.1519 23.3741 43.6159C23.3741 44.0799 23.0261 44.4859 22.5621 44.5439C22.4461 44.5439 22.2721 44.5439 22.1561 44.5439Z" fill="black"/>
</svg>
